<svg id="Layer_1" data-name="Layer 1" xmlns="http://www.w3.org/2000/svg" viewBox="0 0 214.56 27.2"><defs><style>.cls-1{fill:#00ac9d;}.cls-2{fill:#006f60;}.cls-3{fill:#7ac143;}</style></defs><title>CareCredit_logo</title><path class="cls-1" d="M33,39.32c2.62-2.2,2.4-9.68-.48-7.69-4,2.77-8.1,5.77-10.75,7.32a70.42,70.42,0,0,1-12.3,5.59c-1,.33-1.17.34-1.16,0.52s0.31,0.19,1.15.14a73.86,73.86,0,0,0,18.63-3.35A12.41,12.41,0,0,0,33,39.32" transform="translate(-4.67 -23.81)"/><path class="cls-2" d="M34.36,48.88c4.41-1.87,6.32-9.08,2.58-7.71a110,110,0,0,1-15.63,4.19,75.56,75.56,0,0,1-15.54,1,1.42,1.42,0,0,0-1.1.09c-0.06.18,0.32,0.35,0.94,0.63,4.75,2.18,12.8,3.57,21.44,3.16a20,20,0,0,0,7.32-1.35" transform="translate(-4.67 -23.81)"/><path class="cls-3" d="M27.81,31.27c1.81-3.63-1.47-9.16-2.67-7a96.27,96.27,0,0,1-6.58,9.64,67.94,67.94,0,0,1-6.43,7.41,1.79,1.79,0,0,0-.77.9,1,1,0,0,0,.9-0.23A59.8,59.8,0,0,0,24.6,34.84c2.09-1.65,2.56-2.27,3.2-3.56" transform="translate(-4.67 -23.81)"/><path class="cls-2" d="M213.25,35.31V32.94h-6V27.63h-2.56v5.31h-2.46v2.37h2.46V45.74a5.64,5.64,0,0,0,.4,2.21,4.37,4.37,0,0,0,1.14,1.6,4.49,4.49,0,0,0,1.69.92,7,7,0,0,0,2,.28,7.31,7.31,0,0,0,1.55-.16,7.66,7.66,0,0,0,1.4-.47l0.27-.12V47.53l-0.64.27a7.55,7.55,0,0,1-1.22.4,5.29,5.29,0,0,1-1.1.11,3.53,3.53,0,0,1-2.17-.62,2.55,2.55,0,0,1-.77-2.14V35.31h6Zm-16.64-5.8h3V26.43h-3v3.09Zm0.2,20.94h2.56V32.94h-2.56V50.46Zm-6.39-8.72a6.63,6.63,0,0,1-.55,2.72,6.8,6.8,0,0,1-1.46,2.11,6.51,6.51,0,0,1-2.07,1.37,6.26,6.26,0,0,1-4.79,0,6,6,0,0,1-2-1.33,6.32,6.32,0,0,1-1.35-2.11,7.5,7.5,0,0,1-.5-2.8V41.63a7.74,7.74,0,0,1,.49-2.82,6.12,6.12,0,0,1,1.32-2.08,5.74,5.74,0,0,1,2-1.3,6.56,6.56,0,0,1,2.45-.46,6.27,6.27,0,0,1,2.41.49,6.73,6.73,0,0,1,2.08,1.36,6.59,6.59,0,0,1,1.45,2.1,6.73,6.73,0,0,1,.55,2.74v0.07Zm-0.1-6.11-0.41-.46a9.21,9.21,0,0,0-1.62-1.34,8,8,0,0,0-2-.93,8.61,8.61,0,0,0-5.66.29A8.85,8.85,0,0,0,177.8,35a9.07,9.07,0,0,0-2,2.88,9.31,9.31,0,0,0-.76,3.81v0.07a9.3,9.3,0,0,0,.76,3.81,8.81,8.81,0,0,0,2,2.86,8.77,8.77,0,0,0,6,2.41,8,8,0,0,0,2.46-.37,8.54,8.54,0,0,0,2-.95,8.41,8.41,0,0,0,1.62-1.38c0.15-.17.3-0.33,0.44-0.5v2.8h2.56V25.78h-2.56v9.85Zm-31,4.84a7.08,7.08,0,0,1,.55-1.92,6.91,6.91,0,0,1,1.27-1.93,5.52,5.52,0,0,1,1.77-1.25,5.73,5.73,0,0,1,4.55,0,5.13,5.13,0,0,1,1.7,1.32,6.27,6.27,0,0,1,1.09,1.91,8.84,8.84,0,0,1,.44,1.82H159.29Zm11.86-5.25a7.76,7.76,0,0,0-2.6-2,8.07,8.07,0,0,0-3.43-.71,8,8,0,0,0-3.4.73,8.56,8.56,0,0,0-2.7,2,9.07,9.07,0,0,0-1.79,2.89,9.66,9.66,0,0,0-.65,3.53v0.07a9.56,9.56,0,0,0,.7,3.72,8.79,8.79,0,0,0,1.92,2.88A8.55,8.55,0,0,0,162,50.19a8.85,8.85,0,0,0,3.37.66,9,9,0,0,0,4.31-1,12.31,12.31,0,0,0,3.07-2.35l0.32-.34-1.82-1.57-0.31.32a9.55,9.55,0,0,1-2.34,1.77,6.61,6.61,0,0,1-3.17.69,6.34,6.34,0,0,1-2.26-.41,5.74,5.74,0,0,1-1.9-1.19,6.71,6.71,0,0,1-1.41-1.91,6.42,6.42,0,0,1-.61-2.1h14l0.06-.38a2.16,2.16,0,0,0,0-.38V41.7a10.89,10.89,0,0,0-.58-3.58,8.83,8.83,0,0,0-1.65-2.9m-14.53-2.53h-0.45a8.25,8.25,0,0,0-2.56.33,8,8,0,0,0-2.25,1.07,8.85,8.85,0,0,0-1.83,1.7c-0.15.19-.3,0.38-0.44,0.59V32.94h-2.56V50.46h2.56V43.2a9.45,9.45,0,0,1,.57-3.41,7.29,7.29,0,0,1,1.52-2.46,6.23,6.23,0,0,1,2.19-1.49,7,7,0,0,1,2.62-.5h0.63V32.69ZM142.14,45a13.68,13.68,0,0,1-3.51,2.55,9.51,9.51,0,0,1-4.19.86,9.05,9.05,0,0,1-3.71-.76,9.19,9.19,0,0,1-3-2.08,9.78,9.78,0,0,1-1.5-2.09c-0.14-.28-0.27-0.56-0.4-0.86a10.49,10.49,0,0,1-.77-4V38.54a10.61,10.61,0,0,1,.75-4c0.12-.29.25-0.58,0.39-0.86a9.62,9.62,0,0,1,1.49-2.07,9.07,9.07,0,0,1,3-2.06,9.27,9.27,0,0,1,3.71-.74,10.17,10.17,0,0,1,2.31.25,10.32,10.32,0,0,1,2,.67,9.58,9.58,0,0,1,1.7,1A18.12,18.12,0,0,1,142,32l0.33,0.31,1.88-1.89-0.35-.31a19.85,19.85,0,0,0-1.9-1.52,12.86,12.86,0,0,0-2.11-1.2,11.57,11.57,0,0,0-2.45-.78,14.69,14.69,0,0,0-2.93-.27,12.07,12.07,0,0,0-4.86,1A11.83,11.83,0,0,0,125.75,30a12.44,12.44,0,0,0-3.44,8.63v0.07a12.65,12.65,0,0,0,.9,4.76,11.62,11.62,0,0,0,6.34,6.47,12.14,12.14,0,0,0,4.82,1,13.6,13.6,0,0,0,2.94-.3,12.44,12.44,0,0,0,2.51-.85,12.62,12.62,0,0,0,2.18-1.3,22.63,22.63,0,0,0,2-1.65l0.34-.33-1.84-1.74Z" transform="translate(-4.67 -23.81)"/><path class="cls-2" d="M57.4,51A12.56,12.56,0,0,1,44.49,38.36V38.29c0-7,5.39-12.72,13.12-12.72a13.14,13.14,0,0,1,9.92,3.8l-3.52,4a9.39,9.39,0,0,0-6.44-2.78,7.36,7.36,0,0,0-7.3,7.66v0.07c0,4.22,3,7.73,7.3,7.73,2.88,0,4.64-1.12,6.62-2.88l3.52,3.48A13,13,0,0,1,57.4,51" transform="translate(-4.67 -23.81)"/><path class="cls-2" d="M81.09,43a8.62,8.62,0,0,0-3.49-.7c-2.34,0-3.77.91-3.77,2.6V45c0,1.44,1.22,2.28,3,2.28,2.55,0,4.28-1.37,4.28-3.3V43ZM81,50.59v-2a7.48,7.48,0,0,1-5.82,2.39c-3.63,0-6.62-2-6.62-5.76V45.11c0-4.11,3.2-6,7.77-6a14,14,0,0,1,4.71.77V39.55c0-2.21-1.4-3.44-4.13-3.44a14.52,14.52,0,0,0-5.32,1L70.2,33.05a17.32,17.32,0,0,1,7.48-1.51c6,0,8.59,3,8.59,8.12V50.59H81Z" transform="translate(-4.67 -23.81)"/><path class="cls-2" d="M99.79,37c-3.63,0-5.86,2.14-5.86,6.64v7H88.46V31.75h5.47v3.8c1.12-2.6,2.91-4.29,6.15-4.15V37H99.79Z" transform="translate(-4.67 -23.81)"/><path class="cls-2" d="M110,35.69c-2.26,0-3.74,1.58-4.17,4h8.23c-0.32-2.39-1.76-4-4.06-4M119.32,43H105.9a4.45,4.45,0,0,0,4.71,3.69,6.39,6.39,0,0,0,4.68-1.93l3.13,2.7A9.73,9.73,0,0,1,110.54,51c-5.79,0-10.07-4-10.07-9.73V41.21A9.48,9.48,0,0,1,110,31.4c6.44,0,9.39,4.89,9.39,10.23V41.7c0,0.53,0,.84-0.07,1.34" transform="translate(-4.67 -23.81)"/><path class="cls-2" d="M213.31,29.22a3.26,3.26,0,0,1-.71-0.07l0-.72a2.32,2.32,0,0,0,.73.13,0.41,0.41,0,0,0,.5-0.36c0-.57-1.37-0.28-1.37-1.41a1.15,1.15,0,0,1,1.37-1.05,3.58,3.58,0,0,1,.63.06l0,0.67a2.29,2.29,0,0,0-.61-0.09c-0.33,0-.48.14-0.48,0.33,0,0.52,1.37.33,1.37,1.38a1.23,1.23,0,0,1-1.41,1.14" transform="translate(-4.67 -23.81)"/><path class="cls-2" d="M218.39,29.16l-0.22-1.39c0-.27-0.08-0.52-0.1-0.78h0c-0.05.25-.11,0.5-0.2,0.79l-0.42,1.38h-0.77l-0.41-1.26A6.13,6.13,0,0,1,216,27h0c0,0.31-.07.57-0.1,0.85l-0.17,1.32H215l0.55-3.37h0.91l0.48,1.48a5.78,5.78,0,0,1,.18.73h0a6.1,6.1,0,0,1,.19-0.74l0.49-1.47h0.9l0.55,3.37h-0.84Z" transform="translate(-4.67 -23.81)"/></svg>