<svg id="Layer_1" data-name="Layer 1" xmlns="http://www.w3.org/2000/svg" width="100" height="14.48" viewBox="0 0 100 14.48"><defs><style>.cls-1{fill:#012842;}.cls-2{fill:#ed1c24;}</style></defs><title>Lending-Club-Logo</title><path class="cls-1" d="M88.44,15.51a5.6,5.6,0,0,1,4-.65,4,4,0,0,1,3.22,3.5H94.2a2.94,2.94,0,0,0-1.52-2,3.49,3.49,0,0,0-3.91.77,4.71,4.71,0,0,0-1,3,5.7,5.7,0,0,0,.71,3.43,3.16,3.16,0,0,0,5.1.23,5.16,5.16,0,0,0,.71-1.8h1.45a4.58,4.58,0,0,1-2.5,3.85,5.57,5.57,0,0,1-2.76.38,4.31,4.31,0,0,1-3.88-3.09,9.25,9.25,0,0,1-.33-3.36,5.29,5.29,0,0,1,2.21-4.2h0Z" transform="translate(-15 -14.76)"/><path class="cls-2" d="M15,15h2.11c0,0.71,0,1.42,0,2.13-0.7,0-1.39,0-2.09,0,0-.71,0-1.42,0-2.13h0Z" transform="translate(-15 -14.76)"/><path class="cls-2" d="M18.33,15h2.1q0,1.06,0,2.13c-0.7,0-1.4,0-2.1,0,0-.71,0-1.41,0-2.11h0Z" transform="translate(-15 -14.76)"/><path class="cls-2" d="M21.64,15h2.11c0,0.71,0,1.41,0,2.12-0.7,0-1.4,0-2.1,0,0-.7,0-1.4,0-2.11h0Z" transform="translate(-15 -14.76)"/><path class="cls-2" d="M25,15h2.11c0,0.71,0,1.43,0,2.14l-2.1,0c0-.71,0-1.41,0-2.12h0Z" transform="translate(-15 -14.76)"/><path class="cls-2" d="M64.93,15c0.72,0,1.43,0,2.15,0,0,0.71,0,1.41,0,2.12H64.93q0-1.05,0-2.1h0Z" transform="translate(-15 -14.76)"/><path class="cls-1" d="M30.47,25.93c0-3.62,0-7.24,0-10.86h2.26c0,3,0,5.93,0,8.89h5.39q0,1,0,2-3.83,0-7.66,0h0Z" transform="translate(-15 -14.76)"/><path class="cls-1" d="M97.15,15.1h1.25q0,5.42,0,10.83H97.15c0-3.61,0-7.23,0-10.84h0Z" transform="translate(-15 -14.76)"/><path class="cls-1" d="M49.28,19a2.6,2.6,0,0,1,1.61-1.23,3.79,3.79,0,0,1,2.53.36,2.07,2.07,0,0,1,1,1.81c0,2,0,4,0,6H52.3c0-1.79,0-3.59,0-5.39a1.22,1.22,0,0,0-1.54-1.09,1.61,1.61,0,0,0-1.36,1.71c-0.05,1.59,0,3.18,0,4.77l-2.11,0q0-4,0-8h2c0,0.37,0,.73,0,1.1h0Z" transform="translate(-15 -14.76)"/><path class="cls-1" d="M70.84,19a2.68,2.68,0,0,1,1.66-1.24,3.57,3.57,0,0,1,2.74.53A2,2,0,0,1,76,19.89c0,2,0,4,0,6.06l-2.15,0c0-1.58,0-3.16,0-4.75a2.32,2.32,0,0,0-.26-1.29,1.57,1.57,0,0,0-1.78-.3,1.84,1.84,0,0,0-.91,1.75c0,1.53,0,3.06,0,4.6H68.82q0-4,0-8h2c0,0.37,0,.73,0,1.1h0Z" transform="translate(-15 -14.76)"/><path class="cls-1" d="M65,17.89c0.69,0,1.39,0,2.08,0q0,4,0,8.07c-0.69,0-1.39,0-2.08,0,0-2.68,0-5.36,0-8h0Z" transform="translate(-15 -14.76)"/><path class="cls-2" d="M15,18.15h2.12q0,1.06,0,2.13H15q0-1.07,0-2.14h0Z" transform="translate(-15 -14.76)"/><path class="cls-2" d="M21.64,18.15c0.71,0,1.41,0,2.12,0,0,0.71,0,1.43,0,2.14-0.7,0-1.4,0-2.1,0,0-.71,0-1.43,0-2.14h0Z" transform="translate(-15 -14.76)"/><path class="cls-2" d="M24.95,18.14c0.71,0,1.42,0,2.12,0,0,0.71,0,1.43,0,2.14-0.7,0-1.4,0-2.1,0q0-1.07,0-2.14h0Z" transform="translate(-15 -14.76)"/><path class="cls-1" d="M100.05,18h1.35c0,1.78,0,3.56,0,5.34a1.46,1.46,0,0,0,.88,1.48,2,2,0,0,0,2-.49,3.28,3.28,0,0,0,.66-2.09c0-1.41,0-2.83,0-4.24h1.31q0,3.94,0,7.89H105c0-.36,0-0.72,0-1.08a2.61,2.61,0,0,1-1.95,1.25,3.21,3.21,0,0,1-2.17-.4,2.29,2.29,0,0,1-.86-2c0-1.9,0-3.8,0-5.7h0Z" transform="translate(-15 -14.76)"/><path class="cls-1" d="M108,15.07h1.27c0,1.28,0,2.56,0,3.84a3.22,3.22,0,0,1,4.79-.13,5.2,5.2,0,0,1,.86,4.07A3.83,3.83,0,0,1,112.72,26a4.87,4.87,0,0,1-1.78.11,2.55,2.55,0,0,1-1.7-1.12c0,0.32,0,.63,0,1l-1.22,0c0-3.62,0-7.24,0-10.86h0Zm2.83,4a2.3,2.3,0,0,0-1.58,2.06,4.9,4.9,0,0,0,.44,2.91,2.07,2.07,0,0,0,3.07.4,3.59,3.59,0,0,0,.8-2.39,3.59,3.59,0,0,0-.7-2.49,2,2,0,0,0-2-.49h0Z" transform="translate(-15 -14.76)"/><path class="cls-1" d="M39.09,19.43a3.63,3.63,0,0,1,3.38-1.74,3.6,3.6,0,0,1,3.37,1.57,5.25,5.25,0,0,1,.66,3.27H40.63a2.89,2.89,0,0,0,.47,1.32,2,2,0,0,0,3.12-.25c0.75,0,1.49,0,2.24,0a3.49,3.49,0,0,1-3.26,2.59,4.8,4.8,0,0,1-2.85-.49A3.28,3.28,0,0,1,38.59,23a6.09,6.09,0,0,1,.5-3.58h0Zm2.55,0.18a2.11,2.11,0,0,0-.95,1.47h3.63a2.36,2.36,0,0,0-.45-1.1,2,2,0,0,0-2.23-.37h0Z" transform="translate(-15 -14.76)"/><path class="cls-1" d="M61.24,15.08h2.12c0,3.62,0,7.24,0,10.87h-2c0-.35,0-0.7,0-1A2.51,2.51,0,0,1,59,26.15a3,3,0,0,1-2.89-1.72,5.54,5.54,0,0,1-.46-3.06,3.89,3.89,0,0,1,1.73-3.27,2.92,2.92,0,0,1,3.93.74c0-1.25,0-2.5,0-3.75h0Zm-2.4,4.58a2,2,0,0,0-1.05,1.69,3.41,3.41,0,0,0,.49,2.51,1.68,1.68,0,0,0,1.77.45,1.86,1.86,0,0,0,1.17-1.52A3.8,3.8,0,0,0,61,20.46a1.68,1.68,0,0,0-2.14-.8h0Z" transform="translate(-15 -14.76)"/><path class="cls-1" d="M79.13,18c1.26-.55,3-0.38,3.72,1,0-.37,0-0.73,0-1.1,0.69,0,1.38,0,2.07,0,0,2.64,0,5.28,0,7.92a3.36,3.36,0,0,1-.86,2.58,4.67,4.67,0,0,1-3.32.91,4.21,4.21,0,0,1-2.64-.81,2.64,2.64,0,0,1-.8-1.64H79.6c0.34,1,1.61,1,2.42.63,0.92-.5.75-1.71,0.82-2.59-1.1,1.73-3.94,1.45-5-.2A5.44,5.44,0,0,1,77.22,21a3.76,3.76,0,0,1,1.91-3h0Zm1.33,1.69a1.83,1.83,0,0,0-1,1.53,3.22,3.22,0,0,0,.47,2.49,1.65,1.65,0,0,0,2.57-.22,3.61,3.61,0,0,0,.15-2.89,1.67,1.67,0,0,0-2.16-.91h0Z" transform="translate(-15 -14.76)"/><path class="cls-2" d="M15,21.27c0.71,0,1.42,0,2.13,0q0,1.08,0,2.16-1.05,0-2.11,0c0-.72,0-1.44,0-2.16h0Z" transform="translate(-15 -14.76)"/><path class="cls-2" d="M18.33,21.27c0.7,0,1.41,0,2.11,0,0,0.72,0,1.44,0,2.16-0.7,0-1.4,0-2.11,0,0-.72,0-1.44,0-2.16h0Z" transform="translate(-15 -14.76)"/><path class="cls-2" d="M21.64,21.27c0.71,0,1.41,0,2.12,0,0,0.72,0,1.44,0,2.16h-2.1c0-.72,0-1.44,0-2.16h0Z" transform="translate(-15 -14.76)"/><path class="cls-2" d="M25,23.43c0-.72,0-1.44,0-2.16,0.71,0,1.41,0,2.12,0,0,0.72,0,1.45,0,2.17-0.7,0-1.41,0-2.11,0h0Z" transform="translate(-15 -14.76)"/><path class="cls-2" d="M15,24.4c0.71,0,1.42,0,2.13,0,0,0.72,0,1.45,0,2.17H15c0-.72,0-1.45,0-2.17h0Z" transform="translate(-15 -14.76)"/><path class="cls-2" d="M18.32,24.4c0.71,0,1.41,0,2.12,0,0,0.72,0,1.45,0,2.17H18.33q0-1.08,0-2.17h0Z" transform="translate(-15 -14.76)"/><path class="cls-2" d="M21.64,24.4h2.12c0,0.72,0,1.45,0,2.17-0.71,0-1.41,0-2.12,0,0-.72,0-1.45,0-2.17h0Z" transform="translate(-15 -14.76)"/><path class="cls-2" d="M25,26.56c0-.72,0-1.45,0-2.17h2.12c0,0.72,0,1.45,0,2.17H25Z" transform="translate(-15 -14.76)"/></svg>