<svg id="Layer_1" data-name="Layer 1" xmlns="http://www.w3.org/2000/svg" width="173.57" height="76.15" viewBox="0 0 173.57 76.15"><defs><style>.cls-1{fill:#bedbf1;}.cls-2,.cls-3{fill:#010101;}.cls-2{stroke:#010101;stroke-linecap:round;stroke-linejoin:round;stroke-width:0.39px;}.cls-4{fill:#231f20;}.cls-5{fill:#8ec1d9;}</style></defs><title>web-logo_peacock</title><path class="cls-1" d="M55.54,22.64c-0.05-.27-0.72-0.6.09-0.77,0.21,0,.25-0.17.12-0.33s-0.15-.36.14-0.3c1.47,0.28,3,.14,4.45.55A3.6,3.6,0,0,1,62.66,23a0.4,0.4,0,0,0,.51.11,5.94,5.94,0,0,1,1.47-.2,5.84,5.84,0,0,1-2.23-1.07A3.76,3.76,0,0,1,65,22a20.34,20.34,0,0,0,3,.12h0.37c0.4,0,1,.1.92,0.53s-0.61.2-.95,0.12a0.48,0.48,0,0,0-.48,0,1.22,1.22,0,0,0,1.27.78,11.35,11.35,0,0,0,3,.1,8.9,8.9,0,0,1,2.66,0,19.9,19.9,0,0,0,2.88,0c-0.59.46-1.15,0.12-1.57,0.47a100.19,100.19,0,0,0,11.57-.94c-0.22.32-.67,0.1-0.81,0.55,0.41,0,.8,0,1.18,0,0.11,0,.79.31,0.29-0.34-0.07-.09.39-0.23,0.62-0.15s0.4,0.24.23,0.49a2.41,2.41,0,0,1-.57.39,6.4,6.4,0,0,0,1.76.55c0-.25-0.17-0.24-0.28-0.3s-0.47-.09-0.39-0.41a0.52,0.52,0,0,1,.5-0.36,3.05,3.05,0,0,1,1.38,0c1.4,0.62,2.78.1,4.06-.15a16,16,0,0,1,6.63.05,2.15,2.15,0,0,0,1.78-.17,0.43,0.43,0,0,1,.69.41c0,0.45.44,0.43,0.73,0.27,0.71-.39,1.52-0.47,2.25-0.92a5.54,5.54,0,0,1,3.44-.68,1.53,1.53,0,0,0,.9-0.12,0.88,0.88,0,0,1,.6-0.16c0.84,0.57,1.51-.15,2.25-0.22,1.26-.11,2.39-0.82,3.68-0.76a5.16,5.16,0,0,0,1.95-.71,11.2,11.2,0,0,1,4.39-.57,0.78,0.78,0,0,1,.93.56c0.1,0.66-.5.47-0.82,0.6,0,0.48.47,0.18,0.69,0.42a1.86,1.86,0,0,0-1.21,1.19c-0.18.27-.11,0.32-1.3,0.11a1.13,1.13,0,0,1-.85,1.33,4.29,4.29,0,0,0-2.63,1,1.6,1.6,0,0,1-.95.32c-0.57,0-.63-0.23-0.27-0.77-0.66.22-1.23,0.75-1.85,0,0.13,1.16-.75,1.06-1.26,1.12a30.73,30.73,0,0,0-5.43,1,3.63,3.63,0,0,1-1.19.12c-1.43,0-2.92.42-4.25,0.24-1.88-.25-3.62.86-5.45,0.21a0.5,0.5,0,0,0-.27,0,24.36,24.36,0,0,1-10.26.26,10.76,10.76,0,0,0-4,0,3.72,3.72,0,0,1-2-.07,1.52,1.52,0,0,0-1.72.15,0.71,0.71,0,0,1-.7,0,2.56,2.56,0,0,0-1,0c-2.46.52-4.87,0-7.29-.3-0.7-.07-1.38-0.46-2.14,0a1.56,1.56,0,0,1-1.22-.24c-0.37-.14-0.74-0.3-1.12-0.43s-0.69-.38-1,0.31c-0.13.29-1.32,0.29-1.9-.11A6.92,6.92,0,0,0,59.86,26c0,0.18.06,0.17,0.13,0.18l0.28,0c0.21,0,.48,0,0.41.34a0.32,0.32,0,0,1-.46.17,21,21,0,0,1-3.87-.95,8.19,8.19,0,0,0-1.08-.2c-1.78-.5-3.53-1.1-5.33-1.52a16.53,16.53,0,0,0-4.17-.9c-0.9,0-1.81-.66-2.73-1a2.12,2.12,0,0,0-1.62-.2c-0.64.21-1.4-.38-2-0.85-1.15-1-2.44-1.71-3.66-2.58a4.8,4.8,0,0,1-1.33-4.22A3.32,3.32,0,0,1,35.9,12c0.29-.16.47-0.4,0-0.52h0a22.73,22.73,0,0,1,7.89-4.27,12.67,12.67,0,0,0,1.88-1c2.22-1.23,4.65-1.53,7.05-2a12.4,12.4,0,0,0,3.45-1,0.7,0.7,0,0,1,.79,0c0.55,0.47,1.19.17,1.78,0.26A1.29,1.29,0,0,0,60,2.61a1,1,0,0,1,1-.31c2.71,0.33,5.24-.6,7.84-1a5.56,5.56,0,0,1,2.72,0c1.06,0.34,1.93-.43,2.91-0.63C75.69,0.39,76.8,1,78,1c0.17,0,.21.2,0.2,0.37a0.31,0.31,0,0,1-.28.31,14.86,14.86,0,0,1-3.9.57,1.05,1.05,0,0,0-1.08.27,0.86,0.86,0,0,1-.76.25C71,2.15,69.9,3.25,68.74,3a0.56,0.56,0,0,0-.68.15c-0.2.35,0.3,0.4,0.36,0.71a1.92,1.92,0,0,1-2-.5,0.87,0.87,0,0,0-1.12-.1,6.31,6.31,0,0,1-1.5.63,0.87,0.87,0,0,1-.23.14A2.81,2.81,0,0,0,61,4.52a0.68,0.68,0,0,0-.53.5,0.75,0.75,0,0,1-.79.35c-0.8,0-1.61,0-2.41,0a3.84,3.84,0,0,0-2.15.47,4.65,4.65,0,0,1-2,.09,1.78,1.78,0,0,0-1.16.18c1,0.65,2.1.11,3.06,0.55a0.62,0.62,0,0,1,0,.18c-0.47.74-1.15-.76-1.73,0.22s-1.19.07-1.78-.13a1.56,1.56,0,0,0-1.63.77,6.2,6.2,0,0,1-2.71,1.82,0.85,0.85,0,0,0-.66.5c-0.13.38-.57,0.27-1,0.28-0.91,0-1.76-.59-2.69-0.16-0.32.15-.81,0.1-0.52,0.7a0.48,0.48,0,0,1-.23.36c-0.22.11-.34-0.08-0.4-0.25s-0.2-.49-0.43-0.33c-0.91.63-2.11,0.91-2.66,2,0.21,0.37.54-.11,0.76,0.17-0.18.35-.7,0.45-0.68,0.93l-0.24.08,0,0.07,0.21-.13,0.46-.06c0.1,0.5-.54.46-0.62,1a1.64,1.64,0,0,0,.94,1.84,8,8,0,0,1,1.42,1.32c0.64,0.69,1.6.5,2.32,0.92,0.13,0.07.3,0.06,0.43,0.14,0.3,0.19.51,0.77,0.85-.06,0.16-.38,1.87,0,2.24.43,0.63,0.8,1.66,1,2.39,1.64a0.64,0.64,0,0,0,.71.06A4.91,4.91,0,0,1,52,20.6l0.13,0.3,0.12-.07L52,20.59a2.24,2.24,0,0,1,2.29.56c0.29,0.24-.41.19-0.16,0.56a1.38,1.38,0,0,0,1.4.92,0.21,0.21,0,0,0,.06.07c1.16,0.34,2.44.13,3.54,0.76a0.24,0.24,0,0,0,.23-0.07A0.26,0.26,0,0,0,59.23,23,3.29,3.29,0,0,1,58,22.39a0.7,0.7,0,0,0-1.12-.1A1.81,1.81,0,0,1,55.54,22.64ZM47.18,8.39c-0.83,0-1.66-.28-2.35.35a2.64,2.64,0,0,0,1.91.33C47.25,9.11,46.57,8.35,47.18,8.39Zm21.4-6.45c0.52-.06.84,0.71,1.45,0.36A1.26,1.26,0,0,0,68.57,1.94Z" transform="translate(-1.68 -0.52)"/><path class="cls-1" d="M88.23,34.15a1.1,1.1,0,0,1,1.65-.49,9.73,9.73,0,0,1,1.22.64,1,1,0,0,0,1.56-.1c0.4-.4,1.28-0.23,1.82-0.74a0.85,0.85,0,0,1,.83.7,1.08,1.08,0,0,0,1.33,1.13c0.7-.07,1.42,0,2.3,0a3.25,3.25,0,0,1-.78-0.41c-0.43-.45-0.78-0.7-1.17,0a0.61,0.61,0,0,1-.77.13,0.27,0.27,0,0,1-.15-0.38c0.27-.24,0-0.83.34-0.84,1,0,2-.65,3.07-0.1a3.12,3.12,0,0,1,1,.39,1,1,0,0,0,1.5.14,3.57,3.57,0,0,1-1.44-.83c0.95-.39,4.31-0.39,4.84,0a0.46,0.46,0,0,1-.08.14c-0.25.19-.83-0.18-0.83,0.32s0.54,0.52.93,0.47a6.53,6.53,0,0,0,2.41-.39,5.53,5.53,0,0,1,2.9,0,4.41,4.41,0,0,0,1.75,0c0.73-.11,1.26-0.75,2.09-0.6A3.16,3.16,0,0,0,116,33a0.77,0.77,0,0,1,1.07.19,0.72,0.72,0,0,0,1-.41c0-.15,0-0.26.17-0.22a1,1,0,0,1,.45.29c0.2,0.24-.17.46,0,1a1.12,1.12,0,0,1,1.51-1,4.79,4.79,0,0,0,3.24-.62,5.8,5.8,0,0,1,3.19-.2c0.61,0.09,1.23.52,1.85,0,0.14-.12.28,0,0.4,0.11a1.12,1.12,0,0,0,1.66-.14A3.85,3.85,0,0,1,133,30.78a14.36,14.36,0,0,0,2.42-.5c1.6-.66,3.06-1.59,4.67-2.18a3.87,3.87,0,0,1,2.17.19c0.52,0.14.33,0.76-.45,1.19,0.54,0,.82-0.09.49,0.66-0.76,1.67-2.35,2.31-3.62,3.32a3.32,3.32,0,0,1-1.6.12c0-.1,0-0.24-0.13-0.25a0.15,0.15,0,0,0-.11.1c0,0.16.14,0.13,0.24,0.15-0.32.8-1.11,0.5-1.68,0.68a14,14,0,0,0-2.91,1,0.69,0.69,0,0,1-.44.13c-1.4-.32-2.66.69-4,0.39a1,1,0,0,0-.36.06c-1.31.24-2.59,0.61-3.93,0.79a20.3,20.3,0,0,1-3.59.42c-0.8,0-1.58-.2-2.39-0.18a4,4,0,0,0-2.07.36,0.61,0.61,0,0,1-.35.11,10.71,10.71,0,0,0-4,.58,10.3,10.3,0,0,1-3.69,0,2.66,2.66,0,0,0-1.69.11,1.87,1.87,0,0,1-1.47-.35c-0.27-.12-0.48-0.41-0.67.24s-1,.38-1.39.12a3.3,3.3,0,0,0-2.89-.19c0.08,0.27.47,0.07,0.47,0.32s-0.27.22-.43,0.2a11.94,11.94,0,0,1-2.71-.28,38.91,38.91,0,0,0-4.14-.66c-1.71-.35-3.43.53-5.12-0.17a0.33,0.33,0,0,0-.26,0c-0.36,1.13-1.15.42-1.68,0.31a12.55,12.55,0,0,0-2.29,0,47.74,47.74,0,0,1-8.19-.9,3.49,3.49,0,0,0-1.41.24,11.53,11.53,0,0,1-4.29-.36,11.32,11.32,0,0,0-1.82-.28,2.75,2.75,0,0,1-2.24-.66,0.88,0.88,0,0,0-1.18-.1,1.27,1.27,0,0,1-1.4.07A7.48,7.48,0,0,0,60,35.06a7.52,7.52,0,0,1-3.89-.9A0.91,0.91,0,0,0,55.6,34c-1.23.18-2.16-.51-3.13-1.07-0.22-.12-0.52-0.16-0.36-0.5A0.54,0.54,0,0,1,52.73,32a10.79,10.79,0,0,1,1.92.33c0.8,0.32,1.85-.22,2.45.73,0.12,0.19.25,0,.37-0.09a1,1,0,0,1,1,.07c0.45,0.26.47,0.23,0.57-.29,0-.2.14-0.27,0.32-0.16a1,1,0,0,1,.49.4c0.19,1.28,1,.92,1.8.75,0.27-.06.56-0.25,0.76,0a1.11,1.11,0,0,0,1.68,0,1.08,1.08,0,0,1,1.41-.1,3.26,3.26,0,0,0,2.36.54,2.8,2.8,0,0,1,1.26.68,0.46,0.46,0,0,0,.65,0l-1.88-1.38a4.16,4.16,0,0,0,1.86.11,0.57,0.57,0,0,1,.39.33c0.23,0.95.89,0.63,1.24,0.28,0.85-.85,2-0.49,3-0.95,0.4-.19.94,0.44,1.27,0.76,1.13,1.11,2.5,1,3.88,1,0.31,0,.31-0.09-0.08-0.64,0.21-.23,1.07.24,0.68-0.66-0.06-.15.29-0.13,0.45,0a2.87,2.87,0,0,0,2,.18,4,4,0,0,1,2.59.11c1,0.54,2,.06,3.05.16,0,0.11,0,.24.14,0.25a0.15,0.15,0,0,0,.11-0.11C88.48,34.13,88.34,34.17,88.23,34.15Zm-15.42.29a3,3,0,0,1,1.37.68,0.4,0.4,0,0,0,.51.08c0.26-.19,0-0.4-0.07-0.56C74.12,33.85,73.48,34,72.81,34.45Z" transform="translate(-1.68 -0.52)"/><path class="cls-1" d="M73.74,18.28a1,1,0,0,1,.49.32,1.3,1.3,0,0,1-1.28.06c-0.84-.5-1.84-0.5-2.68-1a7.86,7.86,0,0,0-1.9-.59c-1.07-.28-2.15-0.53-3.22-0.83a5.9,5.9,0,0,1-.81-0.45c-0.22-.1-0.5-0.38-0.65.09a0.16,0.16,0,0,1-.29.09c-0.68-.61-1.54-1.08-1.72-2.09-0.46-2.51,1.67-4.7,3.59-5.2a41.12,41.12,0,0,1,4.81-1.14,5.77,5.77,0,0,0,1.28-.7c1.47-.64,3.08-0.38,4.59-0.75,0.65-.16,1.31-0.53,1.91.14a0.54,0.54,0,0,0,.52,0c0.65-1,1.44-.86,2.47-0.61a5.64,5.64,0,0,0,2.43-.39A1.81,1.81,0,0,1,85,5.3a0.67,0.67,0,0,0,.62,0c0.86-.63,1.68-0.22,2.52,0a0.44,0.44,0,0,1,.42.48,0.41,0.41,0,0,1-.36.41,14,14,0,0,1-4.2.61c-0.3,0-1.05-.34-0.66.58,0.07,0.17-.5.24-0.7-0.08-0.44-.71-0.9-0.58-1.41-0.15s-1-.25-1.29.2c-0.71,1-1.62.88-2.58,0.55-0.48-.17-0.71.47-1.19,0.3A2.07,2.07,0,0,0,74.86,8c0.56,0.45,1.25.47,1.76,1.12-0.82-.09-1.41.48-2.15-0.2-0.46-.43-1,0.19-1.21.67a0.68,0.68,0,0,1-.76.59,0.53,0.53,0,0,0-.41.14c-0.41,1.15-1.29.28-1.49,0.11-1.1-.94-2-0.27-3,0.1-0.13,0-.37.13-0.18,0.3,0.81,0.69-.23.48-0.32,0.76,0.07,0.19.47,0.08,0.47,0.46a3.45,3.45,0,0,0-1.44.18,1.73,1.73,0,0,1,1.35,1.05c0.55,0.83,1.18.73,1.93,0.3,1.13-.65,1.28-0.57,1.47.66a1.11,1.11,0,0,0,1.34,1.15,7.83,7.83,0,0,1,1.27.06,1.83,1.83,0,0,0-.54-0.62c-0.21-.37-0.44-0.42-0.66,0s-0.42.44-.72,0.12,0-.34.23-0.53a2.13,2.13,0,0,1,3.37.26c0.31,0.34.31,0.34,1.05,0.08L74.91,14a1.67,1.67,0,0,1,1.76-.22,2.88,2.88,0,0,0,1.44,0,0.65,0.65,0,0,1,.72.28c0.12,0.4-.23.43-0.5,0.47a0.26,0.26,0,0,0-.27.3,0.39,0.39,0,0,0,.32.28,1.92,1.92,0,0,0,1.62.11c1-.66,1.94.13,2.85-0.22a0.23,0.23,0,0,1,.32.09c0.27,0.59.65,0.3,1.07,0.19a40.11,40.11,0,0,1,4.18-.91c1-.14,1.08,0,0.73,1.06,0.64-1.16,1.72-.54,2.6-0.73a4,4,0,0,0,1.72-.57c0.51-.38,1.17.08,1.78,0.12a4,4,0,0,0,1.71.23,0.46,0.46,0,0,1,.41.12c0.44,1,1,.28,1.25,0,0.81-1,2-.88,3-1a4.21,4.21,0,0,0,2-.72c0.42-.31.9-0.17,1.35-0.45,0.87-.55,1.79-1.26,3-0.66,0.3,0.15.49,0.25,0.44,0.57a6.21,6.21,0,0,1-1,2.54c-0.61.89-1.74,1.11-2.35,2-0.09.13-.36,0.2-0.41,0.1-0.49-1.06-.58-0.07-0.87.13a1.68,1.68,0,0,1-.86.28,10.71,10.71,0,0,0-2.72.67,7.36,7.36,0,0,1-2.33.32,20,20,0,0,0-3.87.55,10.28,10.28,0,0,1-5-.07,4.19,4.19,0,0,0-2.53.05c-0.64.18-1.38-.16-2.11,0.09a1.17,1.17,0,0,0-.71.2,0.8,0.8,0,0,1-.86.23c-1-.32-2.07-0.09-3.11-0.43-0.67-.22-1.51.17-2.14-0.45a0.18,0.18,0,0,0-.17,0c-0.62,1.24-1.1.21-1.66-.08A2.1,2.1,0,0,0,73.74,18.28ZM70.9,9.16c0.72,0.77.78,0.77,1.33,0.13A1.82,1.82,0,0,0,70.9,9.16ZM107,14.35a0.15,0.15,0,0,0-.07,0c-0.08,0-.08.06,0,0.1a0.08,0.08,0,0,0,.07,0A0.11,0.11,0,0,0,107,14.35Z" transform="translate(-1.68 -0.52)"/><path class="cls-1" d="M5.77,63.87a0.2,0.2,0,0,1,0,.08L2.33,64a0.18,0.18,0,0,1-.18-0.25,0.49,0.49,0,0,1,.49-0.34c2.19,0,4.38-.11,6.57-0.13,2.7,0,5.41.15,8.09,0,3.14-.22,6.28-0.24,9.4-0.19,2.69,0,5.4-.14,8.1.15a8.21,8.21,0,0,0,3.28,0,3.36,3.36,0,0,1,1.38,0,32.44,32.44,0,0,0,5.08.07c1.93,0,3.88-.23,5.8-0.22,1.69,0,3.39.18,5.08,0.09C57.5,63,59.58,63,61.65,63c1.89,0,3.8,0,5.7,0,3.06,0.11,6.12,0,9.18,0,2.64,0,5.28.26,7.93,0.17,1.4-.05,2.81-0.15,4.2-0.13,1.83,0,3.67.13,5.51,0.14,3.35,0,6.7-.32,10-0.25,1.76,0,3.53,0,5.3,0,3,0.11,6.06.1,9.09,0,2.06-.07,4.13.24,6.17,0a33.69,33.69,0,0,1,6.08.07c1.91,0.12,3.84.07,5.73,0,1.39,0,2.81.05,4.2,0a61.61,61.61,0,0,1,7.74,0c0.82,0.09,1.59-.25,2.44-0.17,2.81,0.26,5.65,0,8.47.23a25.32,25.32,0,0,0,3,0c1.8,0,3.6.06,5.4,0.05,2.1,0,4.2.08,6.29,0.21,0.23,0,.58-0.07.56,0.29s-0.33.1-.51,0.13a31,31,0,0,1-4.76,0c-5.94-.05-11.88,0-17.82,0-2.74,0-5.48.16-8.22,0.17-6,0-12.07,0-18.11,0h-11.8c-1.51,0-3-.31-4.53-0.18-3.34.29-6.68,0.14-10,.17-3.85,0-7.71,0-11.56,0s-7.46.08-11.18,0c-2.05-.06-4.1.08-6.16-0.07s-3.9.13-5.82,0.12c-3.73,0-7.47.23-11.2-.16-0.88-.09-1.77.17-2.67,0.16-4.43,0-8.85-.09-13.28,0-2.53.06-5.06,0-7.58-.09q-4.15-.11-8.29-0.13c-2.28,0-4.55,0-6.83,0-1.67,0-3.34-.22-5-0.07-1.22.11-2.43,0-3.64,0.07a0.35,0.35,0,0,0-.61,0H5.77Zm166.11-.09a0.43,0.43,0,0,0-.15-0.06,0.4,0.4,0,0,0-.14.07,0.4,0.4,0,0,0,.15.06A0.42,0.42,0,0,0,171.87,63.78Z" transform="translate(-1.68 -0.52)"/><path class="cls-1" d="M83.72,1c-2.31.5-3.34,0.45-4.25-.18a0.52,0.52,0,0,1,.1-0.14C80.71,1,81.82.4,83,.54A0.88,0.88,0,0,1,83.72,1Z" transform="translate(-1.68 -0.52)"/><path class="cls-1" d="M51.41,32.28a0.58,0.58,0,0,1-.43.53,0.3,0.3,0,0,1-.37-0.32c0.2-.61-0.28-0.54-0.59-0.65a7.69,7.69,0,0,1-.78-0.24A0.39,0.39,0,0,1,49,31.18c0.07-.24.3-0.2,0.46-0.14a6.67,6.67,0,0,1,1.46.52A1.18,1.18,0,0,1,51.41,32.28Z" transform="translate(-1.68 -0.52)"/><path class="cls-1" d="M91.54,5.8a3.81,3.81,0,0,1-1.45.11,0.7,0.7,0,0,1-.72-1,0.2,0.2,0,0,1,.27-0.16c0.16,0.06.45,0.14,0.33,0.34-0.44.74,0.09,0.45,0.38,0.38A1,1,0,0,1,91.54,5.8Z" transform="translate(-1.68 -0.52)"/><path class="cls-1" d="M40.49,13a0.62,0.62,0,0,1-.88.24C39.82,12.87,40.08,13,40.49,13Z" transform="translate(-1.68 -0.52)"/><path class="cls-1" d="M35.85,11.49l0,0.08,0-.08h0Z" transform="translate(-1.68 -0.52)"/><path class="cls-2" d="M12.55,58.5l-0.18.14-0.21.17-0.31.09-0.59.23a1.87,1.87,0,0,1-.53.07H10.43a2.22,2.22,0,0,0-.33-0.47l-0.43-.29-0.2-.19-0.11-.14-0.22-.31-0.07-.53-0.32-.13-0.28-.46-0.33-.14L8,56.26l-0.13,0-0.12-.15-0.28-.25-0.16-.2-0.23-.15-0.29-.38-0.18-.19a0.66,0.66,0,0,0,0-.2,0.22,0.22,0,0,0-.14-0.25l-0.41-.09L6,54.17l-0.48-.4-0.23-.4L5,53.2,4.71,53l-0.22-.09L4,52.41l-0.17-.06-0.06.24-0.08.23,0,0.44a0.22,0.22,0,0,1,.12.19,0.38,0.38,0,0,1,0,.14l-0.07.22,0,0.54,0,0.42,0,0.26-0.07.23,0.12,0.23,0,0.19,0,0.49,0,0.31L3.81,58V58a0.39,0.39,0,0,1-.11.29l-0.17.17-0.14.14H3.11a0.34,0.34,0,0,0-.26.13l-0.44.4a0.22,0.22,0,0,1-.16,0q-0.17,0-.17-0.11a3.39,3.39,0,0,1,.2-0.56,1,1,0,0,0,.09-0.47l0-.63,0.1-.32-0.05-.69,0.08-.17,0.13,0a0.15,0.15,0,0,0,.15-0.08,0.72,0.72,0,0,0,0-.3l-0.12-.12a0.46,0.46,0,0,1-.19-0.36l0-.36-0.08-.11,0-.31,0-.42,0.07-.72-0.07-.9,0-.44-0.1-.24a0.42,0.42,0,0,1,.31-0.23V51.34a0.31,0.31,0,0,0-.22-0.17l0-.42,0-.73,0.05-.36a1.91,1.91,0,0,1-.15-0.38,2.12,2.12,0,0,1,0-.46V48.41L2.3,48.35l0.06-.69a1,1,0,0,0-.16-0.53l-0.33-.21,0-.25,0.17-.06,0.12-.06a2.92,2.92,0,0,1,1.06-.27l0.6,0,0.26,0a0.46,0.46,0,0,0,.25.18h0l0.84-.18,0.18,0.12H5.48l0.21,0,0.58,0H7.45l0.88,0.17,0.57,0,0.46,0.27L9.87,47a0.74,0.74,0,0,1,.43.36,1.3,1.3,0,0,1,.15.64,2.67,2.67,0,0,1-.15.8L10,48.73a0.41,0.41,0,0,0,.15.32l-0.08.21-0.18.2-0.11.16a0.51,0.51,0,0,1-.27,0,0.25,0.25,0,0,0,0,.13l0.07,0.16-0.11.15-0.18.11-0.38.48L8.6,50.8,8.33,51,8.16,51a0.55,0.55,0,0,1-.24.34l-0.2.09-0.26.1H7.25l-0.41.15-0.12,0H6.66l-0.24.21a0.23,0.23,0,0,0-.13-0.06,0.1,0.1,0,0,0-.13.11,0.32,0.32,0,0,0,.13.2l-0.06.16a0.43,0.43,0,0,0-.17.24l0,0.1H6.27a0.37,0.37,0,0,1,.25-0.14L6.7,52.79l-0.08.07q0,0.29.17,0.29l0.17,0,0.17,0.24L7.6,54l0.32,0.33,0.36,0.47L8.23,55l0.36,0.21a0.84,0.84,0,0,0,.1.22l0.25,0.22,0.37,0.46,0.26,0.32,0.13,0.17v0.12a0.51,0.51,0,0,0,.08.3l0.34,0.12,0.16,0.13,0.29,0.31,0.85,0.59,0.18,0.19h0.07l0.53-.09h0A0.58,0.58,0,0,1,12.55,58.5ZM8.86,48.31a0.7,0.7,0,0,0-.21-0.58L8.39,47.5,8.1,47.26l-0.28,0-0.39-.16-0.08,0H7.2l-0.1-.26-0.22,0L6.76,47l-1.18-.11L5.48,47,5.34,47l-1.16.15H4l-0.13.18a0.24,0.24,0,0,0-.24.15,2,2,0,0,0-.07.65l0,0.6,0,0.4v0.25a0.57,0.57,0,0,0-.24.36,0.34,0.34,0,0,0,.31.31l0.07,0.2,0,0.31v0.27l-0.07.44A0.53,0.53,0,0,0,4,51.6l0,0.07,0.75,0,0.11,0.11,0.15,0,0.28,0,0.54-.23L6,51.55l0.18-.1,0.75-.3,0.28-.21,0.57-.27,0.41-.75,0.46-.56,0-.31,0.16-.47Z" transform="translate(-1.68 -0.52)"/><path class="cls-2" d="M14.29,52.09a1.39,1.39,0,0,0-.13.46l0,0.58-0.11.2v0.05a0.24,0.24,0,0,0,.15.16l0,0.18v1.13l0,0.91,0.08,0.39v0.2l0,0.4a1.29,1.29,0,0,1-.37.34l-0.29.23a0.23,0.23,0,0,1-.17.08,0.21,0.21,0,0,1-.13,0,0.13,0.13,0,0,1-.06-0.1,0.88,0.88,0,0,1,.09-0.36l0-.17-0.06-.06,0.09-1,0-.1,0.15,0V55.37a0.91,0.91,0,0,0,0-.27,0.86,0.86,0,0,0-.15-0.23V54.54a0.81,0.81,0,0,1,.07-0.34l-0.08-.1V53.78a0.13,0.13,0,0,0,.08-0.11v-0.1l-0.17,0V53a0.64,0.64,0,0,0,0-.23,0.45,0.45,0,0,0-.14-0.16,0.72,0.72,0,0,1,.34-0.36L14,51.9A0.42,0.42,0,0,1,14.29,52.09ZM14.65,49a0.19,0.19,0,0,1-.06.17l-0.43.31L14,49.64l-0.31.21a1.24,1.24,0,0,1-.37.23,0.09,0.09,0,0,1-.06,0,0.12,0.12,0,0,1,0-.08,0.28,0.28,0,0,1,.07-0.2l0.6-.57,0.32-.43a0.36,0.36,0,0,1,.16,0,0.29,0.29,0,0,1,.2.08A0.26,0.26,0,0,1,14.65,49Z" transform="translate(-1.68 -0.52)"/><path class="cls-2" d="M20.72,51.91l0,0.15-0.3.64-0.12.36-0.16.53L20,53.8l-0.18.41-0.09.38L19.5,55l-0.71,1.57-0.19.25,0.08,0.11L18.54,57l-0.31.17-0.23.2a0.18,0.18,0,0,1-.09,0,0.13,0.13,0,0,1-.08,0l0-.1L17.72,57l-0.14-.15-0.17-.4-0.33-.63,0-.32V55.39a0.36,0.36,0,0,0-.24-0.12,0.31,0.31,0,0,0,.12-0.16,0.34,0.34,0,0,0-.09-0.23,0.27,0.27,0,0,0-.21-0.1H16.54l-0.11-.37-0.11-.28V53.81l-0.25-.23-0.48-1.08-0.09-.09a0.48,0.48,0,0,1,.17-0.23L16,52l0.15-.14h0l0.15,0,0.13,0,0,0.12,0.16,0.36,0.12,0.64L17,53.45l0.1,0.27L17.23,54l0,0.23,0.13,0.13,0.08,0.33,0.3,0.54,0,0.2,0.11,0.08L18,55.64l0.29,0.58,0.16,0.07s0.06,0,.06,0l0.16-.33,0.23-.42,0.26-.63,0.11-.19c0.13,0,.19,0,0.19-0.1h0l0-.38,0-.12,0.27-.64V53l0.19-.44,0.08-.34A0.43,0.43,0,0,1,20.16,52a0.75,0.75,0,0,1,.36-0.09Z" transform="translate(-1.68 -0.52)"/><path class="cls-2" d="M27.37,56a0.3,0.3,0,0,1,0,.13l-0.12.2-0.27.47-0.25,0L26.54,57a0.32,0.32,0,0,1-.18.07l-1.05.2-0.16.06-0.37,0-0.54,0-0.61,0H23.45l-0.16-.12L22.72,57l-0.19-.18-0.38-.26-0.3-.4L21.73,56a0.57,0.57,0,0,0,.07-0.25,0.1,0.1,0,0,0,0-.07l-0.16-.25,0-.33V54.85a2.11,2.11,0,0,1,.23-0.78L22,53.8l0.11-.25,0.27-.26,0.3-.39L23,52.75l0.38-.26,0.25-.17,0.09-.06,0.18,0,0.53-.17,0.41,0,0.25-.11h0.12a0.59,0.59,0,0,1,.5.32,0.2,0.2,0,0,0,.16-0.12L26,52.22l0.22,0.12,0.49,0.48a1.71,1.71,0,0,1,.14.2l0.1,0.18a1.45,1.45,0,0,1,.09.2l0.11,0.34,0,0.15-0.06,0-0.23,0-0.25.08-0.19,0L26.25,54l-0.41,0-0.39,0L25,53.87H24L23.26,54H23l-0.4.12-0.14,0,0,0.14a0.54,0.54,0,0,1,0,.2,0.43,0.43,0,0,1-.13.12v0.11a0.87,0.87,0,0,1,.2.18l0.15,0.6,0.08,0.15a0.16,0.16,0,0,0-.06.11v0l0.22,0.07L22.92,56a0.39,0.39,0,0,0,.15.25l0.32,0.13,0.11,0.23a0.89,0.89,0,0,0,.26.06l0.08,0.15,0.18,0L24.52,57l0.42-.08L26,56.72l0.24-.15,0.37-.23,0.31-.4a0.24,0.24,0,0,1,.19-0.1A0.17,0.17,0,0,1,27.37,56ZM26,53.27a1,1,0,0,0-.22-0.39l-0.4-.29-0.13-.14H25l-0.44,0-0.11,0-0.25.14-0.32.08-0.41.15-0.16.06-0.19.28L23,53.28l0,0.07,0.72,0.05h0.08l0.13,0,0.13,0,0.34,0.07h0l0.39-.07,0.12,0L25,53.49h0.13l0.51-.11,0.21,0A0.14,0.14,0,0,0,26,53.27Z" transform="translate(-1.68 -0.52)"/><path class="cls-2" d="M33.25,52.33a0.07,0.07,0,0,1,0,.05l-0.33.26-0.18.19-0.11,0-0.16-.1-0.11-.11H32l-0.33-.13-0.13,0a0.35,0.35,0,0,1-.16.16,1.1,1.1,0,0,1-.33,0l-0.19.08-0.15,0-0.12.09-0.47.36a1,1,0,0,0-.13.56v0.44l-0.13.08a0.76,0.76,0,0,1,.12.39h0.09V54.8l0,0.75V56l0,0.36a0.31,0.31,0,0,0-.18.17l0,0.11,0.16,0V56.6l0,0.23v0A0.26,0.26,0,0,1,30,57a0.33,0.33,0,0,1-.19.11l-0.23,0-0.34.18-0.15-.09,0-.12,0.08-.34,0-.45,0-.06h0.12V56.12L29.27,56l0-.24,0-.2h0V55.15l0-.06,0.07-.1,0.1-.16,0.06-.14V54.64c-0.18,0-.27,0-0.27-0.12l0-.44,0-.44a0.25,0.25,0,0,1,.08-0.11V53.35l-0.08-.07,0-.14V52.83L29,52.58a0.67,0.67,0,0,1,.19-0.36L29.58,52l0.22-.14A0.51,0.51,0,0,1,30,52a0.3,0.3,0,0,1,.06.21V52.4c0,0.14,0,.22.09,0.22h0l0.3-.16,0.29-.11,0.5-.28L31.46,52l0.13,0L31.86,52a1.29,1.29,0,0,1,.34-0.07l0.25,0a0.32,0.32,0,0,0,.19.16h0L32.82,52l0.07,0a0.36,0.36,0,0,1,.27.16A0.33,0.33,0,0,1,33.25,52.33Z" transform="translate(-1.68 -0.52)"/><path class="cls-2" d="M38.44,51.91l0,0.15-0.3.64L38,53.06l-0.16.53-0.08.22-0.18.41-0.09.38-0.25.4-0.71,1.57-0.19.25,0.08,0.11L36.26,57l-0.31.17-0.23.2a0.18,0.18,0,0,1-.09,0,0.13,0.13,0,0,1-.08,0l0-.1L35.43,57l-0.14-.15-0.17-.4-0.33-.63,0-.32V55.39a0.36,0.36,0,0,0-.24-0.12,0.31,0.31,0,0,0,.12-0.16,0.34,0.34,0,0,0-.09-0.23,0.27,0.27,0,0,0-.21-0.1H34.26l-0.11-.37L34,54.15V53.81l-0.25-.23-0.48-1.08-0.09-.09a0.48,0.48,0,0,1,.17-0.23L33.73,52l0.15-.14h0l0.15,0,0.13,0,0,0.12,0.16,0.36,0.12,0.64,0.22,0.4,0.1,0.27L34.94,54l0,0.23,0.13,0.13,0.08,0.33,0.3,0.54,0,0.2,0.11,0.08,0.14,0.11L36,56.23l0.16,0.07s0.06,0,.06,0l0.16-.33,0.23-.42,0.26-.63,0.11-.19c0.13,0,.19,0,0.19-0.1h0l0-.38,0-.12,0.27-.64V53l0.19-.44,0.08-.34A0.43,0.43,0,0,1,37.88,52a0.75,0.75,0,0,1,.36-0.09Z" transform="translate(-1.68 -0.52)"/><path class="cls-2" d="M40.69,52.09a1.39,1.39,0,0,0-.13.46l0,0.58-0.11.2v0.05a0.24,0.24,0,0,0,.15.16l0,0.18v1.13l0,0.91,0.08,0.39v0.2l0,0.4a1.29,1.29,0,0,1-.37.34l-0.29.23a0.23,0.23,0,0,1-.17.08,0.21,0.21,0,0,1-.13,0,0.13,0.13,0,0,1-.06-0.1,0.88,0.88,0,0,1,.09-0.36l0-.17-0.06-.06,0.09-1,0-.1,0.15,0V55.37a0.91,0.91,0,0,0,0-.27,0.86,0.86,0,0,0-.15-0.23V54.54a0.81,0.81,0,0,1,.07-0.34l-0.08-.1V53.78a0.13,0.13,0,0,0,.08-0.11v-0.1l-0.17,0V53a0.64,0.64,0,0,0,0-.23,0.45,0.45,0,0,0-.14-0.16,0.72,0.72,0,0,1,.34-0.36l0.56-.32A0.42,0.42,0,0,1,40.69,52.09ZM41,49a0.19,0.19,0,0,1-.06.17l-0.43.31-0.17.17-0.31.21a1.24,1.24,0,0,1-.37.23,0.09,0.09,0,0,1-.06,0,0.12,0.12,0,0,1,0-.08,0.28,0.28,0,0,1,.07-0.2l0.6-.57,0.32-.43a0.36,0.36,0,0,1,.16,0,0.29,0.29,0,0,1,.2.08A0.26,0.26,0,0,1,41,49Z" transform="translate(-1.68 -0.52)"/><path class="cls-2" d="M48.1,56a0.3,0.3,0,0,1,0,.13l-0.12.2-0.27.47-0.25,0L47.27,57a0.32,0.32,0,0,1-.18.07l-1.05.2-0.16.06-0.37,0-0.54,0-0.61,0H44.19L44,57.18,43.46,57l-0.19-.18-0.38-.26-0.3-.4L42.46,56a0.57,0.57,0,0,0,.07-0.25,0.1,0.1,0,0,0,0-.07l-0.16-.25,0-.33V54.85a2.11,2.11,0,0,1,.23-0.78l0.22-.27,0.11-.25,0.27-.26,0.3-.39,0.26-.15,0.38-.26,0.25-.17,0.09-.06,0.18,0,0.53-.17,0.41,0,0.25-.11h0.12a0.59,0.59,0,0,1,.5.32,0.2,0.2,0,0,0,.16-0.12l0.16,0.13,0.22,0.12,0.49,0.48a1.71,1.71,0,0,1,.14.2l0.1,0.18a1.45,1.45,0,0,1,.09.2l0.11,0.34,0,0.15-0.06,0-0.23,0-0.25.08-0.19,0L47,54l-0.41,0-0.39,0-0.41-.07h-1L44,54H43.71l-0.4.12-0.14,0,0,0.14a0.54,0.54,0,0,1,0,.2,0.43,0.43,0,0,1-.13.12v0.11a0.87,0.87,0,0,1,.2.18l0.15,0.6,0.08,0.15a0.16,0.16,0,0,0-.06.11v0l0.22,0.07L43.65,56a0.39,0.39,0,0,0,.15.25l0.32,0.13,0.11,0.23a0.89,0.89,0,0,0,.26.06l0.08,0.15,0.18,0L45.25,57l0.42-.08,1.11-.18L47,56.57l0.37-.23,0.31-.4a0.24,0.24,0,0,1,.19-0.1A0.17,0.17,0,0,1,48.1,56Zm-1.38-2.75a1,1,0,0,0-.22-0.39l-0.4-.29L46,52.45H45.78l-0.44,0-0.11,0L45,52.57l-0.32.08-0.41.15-0.16.06-0.19.28-0.19.15,0,0.07,0.72,0.05h0.08l0.13,0,0.13,0,0.34,0.07h0l0.39-.07,0.12,0,0.09,0.13h0.13l0.51-.11,0.21,0A0.14,0.14,0,0,0,46.72,53.27Z" transform="translate(-1.68 -0.52)"/><path class="cls-2" d="M56.83,51.95a3.68,3.68,0,0,1-.07.64L56.63,53l0,0.17-0.12.32,0,0.2a0.51,0.51,0,0,1-.16.17v0.29l-0.62,2-0.06.6-0.46.36L55,57.28l-0.12.09-0.1-.09-0.09-.12-0.15-.09,0-.11-0.07-.25-0.13-.16,0.11-.07V56.39l-0.11-.12-0.16-.09A0.36,0.36,0,0,1,54,56l-0.15-.6L53.63,55a0.08,0.08,0,0,1,.08-0.08l0.09,0a0.38,0.38,0,0,0-.15-0.36l-0.18-.09a1.32,1.32,0,0,1-.18-0.53l0-.11H53.18l-0.06.13L52.7,55.38l-0.3.85-0.08.34-0.07.2,0,0.2-0.27.19-0.09.09-0.23.05-0.18.11-0.06-.15L51.21,57l-0.09-.23-0.24-.82-0.34-.6,0-.47,0-.11a0.27,0.27,0,0,1-.27-0.15l-0.09-.24L50,54.15l-0.13-.42-0.17-.18-0.43-.91-0.08-.15a0.58,0.58,0,0,1,.25-0.33l0.24-.09L50,51.89H50a0.22,0.22,0,0,1,.14,0,0.28,0.28,0,0,1,.09.13l0.24,0.89,0,0.14a0.39,0.39,0,0,1-.12.13,0.3,0.3,0,0,0,.18.26h0.09l0.12,0a0.83,0.83,0,0,1,.17.3v0L51,54l0.12,0.39,0.06,0.23,0.15,0.22,0.32,1L51.74,56l0.07,0.11h0.11L52,56a1.5,1.5,0,0,0,.19-0.47l0-.34,0.15-.33,0.08-.32,0.2-.53a3.51,3.51,0,0,1,0-.44,0.45,0.45,0,0,1,.08-0.22,0.6,0.6,0,0,1,.21-0.15l-0.06-.13-0.13-.16,0-.37,0-.18V52.19l0.14-.07L53,52a0.9,0.9,0,0,1,.43-0.12h0.11L53.63,52l0.14,0.09,0.07,0.4L53.95,53l-0.08.23,0.07,0.13a0.4,0.4,0,0,0,.15.13l0.15,0.41,0,0.12,0.11,0.37,0.54,1.48a0.32,0.32,0,0,0,.26.25l0.17-.26a0.49,0.49,0,0,1-.06-0.25,0.21,0.21,0,0,1,0-.09l0.41-1V54.17l0.17-.54,0-.41L56,52.84c0-.14,0-0.25,0-0.34a0.71,0.71,0,0,1,0-.21,0.31,0.31,0,0,1,.12-0.13L56.37,52a0.82,0.82,0,0,1,.3-0.14Z" transform="translate(-1.68 -0.52)"/><path class="cls-3" d="M73.92,51.63l-0.09.4,0,0.46a0.84,0.84,0,0,1-.2.53l-0.14.2-0.35.09a0.73,0.73,0,0,0-.1.27l0,0h0.08l-0.05-.12,0.17,0.14-0.09.13L73.19,54l-0.14.24-0.2.31L72.2,55l-0.33.58-0.29.23L71,56.5a1,1,0,0,1-.38.26L70,57l-0.15.08a0.39,0.39,0,0,1-.08.27l-0.18.08-1,.53-0.6.43a1,1,0,0,1-.58.21,0.57,0.57,0,0,1-.26-0.09,3.19,3.19,0,0,1-.65.29L66,59,65.66,59l-0.7.06-0.19,0-0.45-.19a1.44,1.44,0,0,1-.65.23l-0.05-.08a0.53,0.53,0,0,1-.38-0.15l-0.31,0v0.23a1.13,1.13,0,0,1-.59.18,1.49,1.49,0,0,1-.4-0.06A6,6,0,0,0,61.12,59c-0.13,0-.2,0-0.2-0.07V58.9l0.13-.16,0.2-.06,0.35-.09,0.07,0,0.14-.17A0.59,0.59,0,0,0,62,58.19V57.9l0.1-.4,0-.19V57.19l0.11-.08a0.52,0.52,0,0,1-.13-0.35l0-.55,0-.25,0.19-.21a0.57,0.57,0,0,1-.1-0.25l0-.3L62.09,55l0-.53V53.77l0.14-.31a1.12,1.12,0,0,0,0-.21,0.41,0.41,0,0,0-.2-0.31l0-.37V52.41a0.37,0.37,0,0,1,.18-0.25l0-.52H62.06L62,51.45l0-.5L62,50.22,62,50l-0.12-.27,0-.92-0.23-.29,0.2-.42,0-.14-0.05-.53,0-.31A1.07,1.07,0,0,1,61.45,47l-0.23-.09V46.65l0.3-.13h0.66l0.37-.18A1.09,1.09,0,0,1,63,46.27l0.56,0,0.31,0.11,0.21-.08,0.15,0.1h0.28l0.33,0,0.31,0h0l0.28-.06L66,46.59l0.68,0,0.23,0.11,1,0.12L68.46,47l0.68,0.13,0.47,0.18,0.2,0.08,0,0.2,0.1,0.11-0.07.11,0,0L69.78,48l0.05,0,0.3-.11,0.24-.08,0.21,0.08,0.31,0.09,0.19,0.14,0,0.21,0.08,0,0.32,0a0.55,0.55,0,0,1,.37.33H72a1.31,1.31,0,0,1,.66.35,3.4,3.4,0,0,1,.8.84l-0.13.13,0,0.14,0.1,0.19,0.17,0.13a1.29,1.29,0,0,1,.16.43,0.22,0.22,0,0,0-.16.19,0.11,0.11,0,0,0,0,.07l0.25,0.4A0.38,0.38,0,0,1,73.92,51.63Zm-1.55-.2a0.47,0.47,0,0,1-.2-0.15A0.67,0.67,0,0,1,72.11,51L72,51V50.9a0.74,0.74,0,0,0-.1-0.29l-0.16-.29,0-.09-0.17-.17-0.42-.35-0.14-.12-0.16-.2-0.2-.28H70.53a1.32,1.32,0,0,1-.35,0l-0.82-.48L69,48.52l-0.23-.11-0.2,0,0-.21-0.27-.06a0.36,0.36,0,0,0-.21.11A1.43,1.43,0,0,0,67.63,48L67.38,48a0.24,0.24,0,0,1-.11,0l-0.1-.1L67,47.67a0.71,0.71,0,0,1-.37.11,0.51,0.51,0,0,1-.35-0.11l-0.2-.16-0.53-.09-1.21-.17-0.59.06-0.12-.08-0.09.08-0.09.19L63.3,47.4l0,0.27a2.11,2.11,0,0,1-.09.61l0,0.2a4,4,0,0,1,.12.52l0,0.17-0.1-.07H63.15a1.34,1.34,0,0,0,.14.6v0.26l-0.11,0A0.23,0.23,0,0,1,63,50H62.95l0,0.19L63,50.37a0.79,0.79,0,0,1,.24.14,0.26,0.26,0,0,1,.06.19,0.24,0.24,0,0,0-.18.2,0.16,0.16,0,0,0,0,.09l0.18,0.46L63.3,53.12l0.07,0.23-0.09.48,0.07,0.07,0,0.35,0,0.52a0.46,0.46,0,0,1-.06.27,1.34,1.34,0,0,1-.27.21l0,0.28,0.3,0.2V56l0,1.13,0.05,0.25,0.08,0.33a0.5,0.5,0,0,1,.05.21,0.64,0.64,0,0,1-.07.2H63.28a0.36,0.36,0,0,0-.28.31,4.68,4.68,0,0,0,.83.11l1.13,0,0.4,0,1.27-.4,0.2,0,1-.4,0.65-.29,0.26-.11,0.19-.18,0.63-.26L70,56.32l0.2-.09,0.1-.13,0.1-.35,0.35-.22,0.2-.32,0.37-.47,0.07-.22a1,1,0,0,0,.34,0,0.14,0.14,0,0,0,.08-0.14,0.23,0.23,0,0,0-.22-0.19,1.93,1.93,0,0,0,.4-0.7,5.22,5.22,0,0,0,.2-1.06A4.18,4.18,0,0,1,72.37,51.43Z" transform="translate(-1.68 -0.52)"/><path class="cls-3" d="M80.9,56a0.3,0.3,0,0,1,0,.13l-0.12.2-0.27.47-0.25,0L80.07,57a0.32,0.32,0,0,1-.18.07l-1.05.2-0.16.06-0.37,0-0.54,0-0.61,0H77l-0.16-.12L76.25,57l-0.19-.18-0.38-.26-0.3-.4L75.26,56a0.57,0.57,0,0,0,.07-0.25,0.1,0.1,0,0,0,0-.07l-0.16-.25,0-.33V54.85a2.11,2.11,0,0,1,.23-0.78l0.22-.27,0.11-.25,0.27-.26,0.3-.39,0.26-.15,0.38-.26,0.25-.17,0.09-.06,0.18,0,0.53-.17,0.41,0,0.25-.11H78.7a0.59,0.59,0,0,1,.5.32,0.2,0.2,0,0,0,.16-0.12l0.16,0.13,0.22,0.12,0.49,0.48a1.71,1.71,0,0,1,.14.2l0.1,0.18a1.45,1.45,0,0,1,.09.2l0.11,0.34,0,0.15-0.06,0-0.23,0-0.25.08-0.19,0L79.78,54l-0.41,0-0.39,0-0.41-.07h-1L76.79,54H76.5l-0.4.12-0.14,0,0,0.14a0.54,0.54,0,0,1,0,.2,0.43,0.43,0,0,1-.13.12v0.11a0.87,0.87,0,0,1,.2.18l0.15,0.6,0.08,0.15a0.16,0.16,0,0,0-.06.11v0l0.22,0.07L76.44,56a0.39,0.39,0,0,0,.15.25l0.32,0.13L77,56.56a0.89,0.89,0,0,0,.26.06l0.08,0.15,0.18,0L78,57l0.42-.08,1.11-.18,0.24-.15,0.37-.23,0.31-.4a0.24,0.24,0,0,1,.19-0.1A0.17,0.17,0,0,1,80.9,56Zm-1.38-2.75a1,1,0,0,0-.22-0.39l-0.4-.29-0.13-.14H78.57l-0.44,0-0.11,0-0.25.14-0.32.08L77,52.79l-0.16.06-0.19.28-0.19.15,0,0.07,0.72,0.05h0.08l0.13,0,0.13,0,0.34,0.07h0l0.39-.07,0.12,0,0.09,0.13h0.13l0.51-.11,0.21,0A0.14,0.14,0,0,0,79.52,53.27Z" transform="translate(-1.68 -0.52)"/><path class="cls-3" d="M87.74,56.82L87.68,57l-0.81.39a0.77,0.77,0,0,1-.16-0.26v0l0.14-.56V56.28h0l0.1-.12A0.32,0.32,0,0,0,86.93,56L86.79,56l0-.09,0.09-1.09-0.06-.15V54l0.07-.22-0.11-.11V53.33A1.1,1.1,0,0,0,86.58,53V52.9a0.13,0.13,0,0,0,0-.11H86.38l-0.3-.18-0.48,0-0.55,0a0.52,0.52,0,0,0-.16.15l-0.11,0-0.46.08-0.16,0L84,53l-0.26.12a0.35,0.35,0,0,0-.22.28V54l-0.08.36,0.12,0.35v0.88l-0.11.24v0.12l0.11,0.19,0,0.64,0,0.2a0.18,0.18,0,0,1,0,.09,0.19,0.19,0,0,1-.09.08l-0.39.09-0.11,0a0.25,0.25,0,0,1-.18.16,0.18,0.18,0,0,1-.12-0.06v0l0,0,0,0,0.09-.43V56.31l0.06-.2,0-.33,0-.36V54.67a0.18,0.18,0,0,1,.2-0.17,0.25,0.25,0,0,0-.06-0.16,0.37,0.37,0,0,0-.19,0V53.26l0.13-.08-0.07-.12-0.16-.43-0.11-.13,0.07-.13,0.12-.15,0.21-.09,0.2-.16a0.33,0.33,0,0,1,.22-0.07,0.27,0.27,0,0,1,.15,0,0.16,0.16,0,0,1,.08.1v0.55l0,0.18,0.11,0a3.23,3.23,0,0,1,.49-0.48A0.84,0.84,0,0,1,84.6,52a0.15,0.15,0,0,1,.12.12A1.16,1.16,0,0,0,85,52a0.63,0.63,0,0,1,.29-0.09h0l0.48,0L86,51.91,86.52,52a0.72,0.72,0,0,1,.43.19H87a0.37,0.37,0,0,1,.31.16l0.09,0.15,0.12,0.19a0.74,0.74,0,0,1,.08.43v0.33l0,0.14-0.14.18,0,0.15L87.63,54v0.24a0.16,0.16,0,0,1,0,.07l-0.08.17a0.43,0.43,0,0,0,0,.17l0.12,0.15v0.63l0.09,0.23v0.53Z" transform="translate(-1.68 -0.52)"/><path class="cls-3" d="M93.58,52.13l-0.06.16v0.12l-0.42.31L92.84,53,92.7,53l-0.22,0-0.39-.07-0.17,0h0l-0.39,0-0.23,0a0.25,0.25,0,0,0-.14.06,0.14,0.14,0,0,0-.06.11,0.08,0.08,0,0,0,.07.08v0.75a0.27,0.27,0,0,0-.25.22v0.13l0.24,0,0,0.56v0.12l-0.06.18-0.12,0a0.12,0.12,0,0,0-.15.13,0.37,0.37,0,0,0,.09.18,0.26,0.26,0,0,1,.11-0.1l0.12,0.09v0.79l0,0.12,0.13,0.28a1,1,0,0,1,0,.2,1.08,1.08,0,0,0,.22.11,0.79,0.79,0,0,0,.22,0,1.11,1.11,0,0,0,.37-0.06,0.88,0.88,0,0,0,.3-0.16l0.58-.53a0.12,0.12,0,0,1,.09,0,0.48,0.48,0,0,1,.2.08l0,0.13a1,1,0,0,1-.2.51l-1.37.5-0.24.12-0.18-.11-0.12,0-0.06.16H91a0.74,0.74,0,0,1-.41-0.17,0.71,0.71,0,0,1-.26-0.3l0-.17-0.07-.2v-0.7l0.12-.39,0-.14,0-.2V55.07l0-.56V54.35l0-.2s0,0,0,0l0.15-.18a0.13,0.13,0,0,0,0-.07c0-.09-0.07-0.13-0.2-0.13l0-.07a6.3,6.3,0,0,0,.06-0.85,1.93,1.93,0,0,0-1.15.06,0.12,0.12,0,0,1,0-.09,0.14,0.14,0,0,1,0-.13l0.23-.19,0-.13a0.16,0.16,0,0,1,.06-0.08l0.06,0,0.68,0,0.16,0V52.05l0-1.24-0.15-.33,0-.18a1.25,1.25,0,0,1,.35-0.35A1.3,1.3,0,0,1,91,49.79a0.32,0.32,0,0,1,.2-0.18q0.16,0,.16.53a3.17,3.17,0,0,1-.15,1.15,0.3,0.3,0,0,1-.16.24V51.8h0.12a0.24,0.24,0,0,1,.07.07l0,0.16,0,0.13h0.12l0.58,0.13,0.19,0a0.5,0.5,0,0,0,.18,0l0.23-.07,0.44,0,0.34-.12h0.3v0Z" transform="translate(-1.68 -0.52)"/><path class="cls-3" d="M99.9,56.82l-0.06.11-0.09.14-0.17.06-0.24.13-0.23.07-0.25.09a0.11,0.11,0,0,1-.08,0,0.13,0.13,0,0,1,0-.08A1.34,1.34,0,0,1,98.8,57a0.69,0.69,0,0,0,0-.2l-0.12.08-0.53.18a0.72,0.72,0,0,1-.32.08H97.65l-0.27.13-0.19,0-0.54.11-0.22,0-0.16.06-0.11,0H96l-0.39-.08-0.26,0a1,1,0,0,1-.46-0.18,0.88,0.88,0,0,1-.29-0.38l-0.16-.06,0-.15V56.48l-0.08-.27,0.22-.43,0.07-.19a0.82,0.82,0,0,1,.22-0.22L95.25,55l0.19-.07,0.32-.13h0.06a0.44,0.44,0,0,1,.44-0.25l0,0h0.12a0.44,0.44,0,0,1,.15-0.13,1.44,1.44,0,0,1,.29-0.08l0.73-.13,0.22,0,0.27-.06,0.49-.05a0.26,0.26,0,0,0,.25-0.24,0,0,0,0,0,0,0l-0.06-.26,0-.38A0.26,0.26,0,0,0,98.71,53a0.43,0.43,0,0,0-.21-0.07l-0.08-.13a1,1,0,0,0-.21-0.27,0.86,0.86,0,0,0-.31-0.11l-0.33-.08H97.24l-0.16,0L97,52.28a0.26,0.26,0,0,1,0-.11l-0.16.07-0.18.17L96,52.7a0.64,0.64,0,0,0-.24.19L95.72,53a0.18,0.18,0,0,1-.16.09l-0.12,0L95.28,53,95.1,53a0.55,0.55,0,0,1-.18-0.1,0.19,0.19,0,0,1-.09-0.13s0,0,0,0l0.1-.07,0.19-.15,0.2,0,0.31-.16L96,52.16l0.11,0L96.39,52l0.2,0,0.71-.15h0.53L98.07,52l0.69,0.13,0.11,0.06v0.08l-0.08,0q0,0.2.15,0.2h0l0.16-.07h0a0.07,0.07,0,0,1,.08.06l0.12,0.22,0.12,0.09v0.13l0,0.3a0.41,0.41,0,0,0,.19.33l0.08,0.86-0.16.22,0.18,0.21v0.08l0,0.55,0,0.42v0.23l-0.08,0c0,0.1,0,.16,0,0.19a0.52,0.52,0,0,0,0,.12l0.08,0.18Zm-0.93-1a0.41,0.41,0,0,1-.11-0.13l0-.24,0-.54,0.07-.16-0.19-.11-0.1,0-0.54,0H97.83l-0.19-.13-0.12.07H97.2L97,54.67l-0.13-.08-0.16.1-0.88.42-0.19.14-0.15.23-0.2.12a0.14,0.14,0,0,0,0,.11v0l0,0.07v0.05l0.13,0.53-0.13.33,0.09,0.12,0.16-.19,0.15,0.12,0.17,0.08,0.25,0.07,0.12,0.16,0.4,0L96.71,57l0.12,0.06,0.08,0L97,57l0.16,0a1,1,0,0,0,.46-0.16l0,0,0.09,0a0.86,0.86,0,0,0,.69-0.22l0.12-.15,0.29-.24V56A0.2,0.2,0,0,0,98.93,56,0.44,0.44,0,0,0,99,55.81Z" transform="translate(-1.68 -0.52)"/><path class="cls-3" d="M103,56.18l0,0.31v0.24a0.17,0.17,0,0,1-.09.15l0,0.14-0.13,0-0.39.24-0.15,0-0.18.11H102c-0.07,0-.11,0-0.11-0.07V57.21l0-.26,0.08-.64,0-.81a1.11,1.11,0,0,1,.13-0.49L102,54.83a0.92,0.92,0,0,1-.1-0.21,0.86,0.86,0,0,1,.15-0.34,0.34,0.34,0,0,0,.06-0.19,0.22,0.22,0,0,0-.18-0.15l0-.1-0.05,0V53.63l0.1-.41v-1l0.12-.47a0.29,0.29,0,0,0-.14-0.2V51.28l0-1.05a1,1,0,0,1,.15-0.4l0.09-.15a0.31,0.31,0,0,1-.22-0.18s0-.06,0-0.23l-0.12-.11V48.93l0-.27V48.61l0.1-.3-0.1-.41,0-.2L101.75,47V46.91l0-.19,0-.24,0.53-.29L102.6,46l0.1,0,0.08,0.13v0.25l0,0.17v0.24l0,0.43v0.24a0.36,0.36,0,0,1,0,.15l-0.14.3,0,0.12a0.25,0.25,0,0,1,.15,0,0.27,0.27,0,0,1,0,.17v0.13a0.22,0.22,0,0,1-.14.19v0.31L102.78,49l0,1.12v0.8l-0.16.31,0.09,0.44-0.12.29a0.39,0.39,0,0,0,.11.13l0.1,0.11,0,1.89-0.15.16a1.54,1.54,0,0,1,0,.24,1.37,1.37,0,0,1-.05.39L102.67,55h0.16v0.22Z" transform="translate(-1.68 -0.52)"/><path class="cls-3" d="M120.45,58.36a0.29,0.29,0,0,1,0,.11l-0.36.3-0.39.54h-0.29l-0.18,0V59.18l-0.1-.23,0-.18V58.6a1.21,1.21,0,0,1-.13-0.45h-0.14l-0.06-.2-0.28-.62,0-.32L118,56.2a0.84,0.84,0,0,1-.06-0.38l0-.06a0.49,0.49,0,0,0,0-.08,0.57,0.57,0,0,1-.24-0.23,2.83,2.83,0,0,1-.34-0.9l-0.3-.15a0.41,0.41,0,0,1-.33.41h0l-0.91-.17-0.33,0-0.24,0L114,54.8l-0.74,0-0.4.11-0.3-.11-0.24-.06a0.82,0.82,0,0,1-.2.2,0.43,0.43,0,0,1-.21,0h-0.05l-0.78-.05-0.3.07-0.38,0a1.08,1.08,0,0,0-.46.62l-0.18.36-0.1,0a6.74,6.74,0,0,1-.72,1.33l0,0.19-0.14.2-0.53,1.13a0.53,0.53,0,0,1-.41.25v0.15l-0.29,0a0.91,0.91,0,0,1-.53-0.2l0.37-.62,0.26-.32,0.22-.34,0.13-.2,0.13-.17V57.33a0.36,0.36,0,0,0,.38-0.34V56.77l0.29-.34,0.42-.86,0.23-.32,0.27-.57L110,54.1l0.37-.6,0.38-.36a0.13,0.13,0,0,0,0-.09,0.25,0.25,0,0,0-.08-0.16,1.77,1.77,0,0,0,.24-0.2,0.87,0.87,0,0,0,.14-0.22L111,52.3l0.11-.18,0.16-.43a1.28,1.28,0,0,1,.23-0.23V51.37L112,50.31l0.35-.86a2.15,2.15,0,0,1,.42-0.59l-0.06-.2,0.06-.25a1.77,1.77,0,0,1,.12-0.37,0.31,0.31,0,0,1,.17-0.15l0.31-.08,0.06-.14-0.08-.27a0.61,0.61,0,0,1,0-.16,0.2,0.2,0,0,1,.11-0.18l0.62-.41,0.14-.28a0.71,0.71,0,0,1,.51-0.27l0.09,0.38h0.11l0,0.1,0.11,0.27,0.24,0.34,0.3,0.62,0.16,0.5,0.21,0.41-0.23.07a0.22,0.22,0,0,0,.07.17,0.49,0.49,0,0,1,.3.36l0,0.16,0.19,0.23,0.22,0.41,0.11,0.22,0,0.07-0.08.17,0,0.18L116.57,51l0.25,0.22,0.28,0.64,0.15,0.28v0.22a0.43,0.43,0,0,1,.29.61l0.17,0.18,0.37,0.7L118.14,54l0.1,0.19,0.09,0.19a1.71,1.71,0,0,1,.16.31,1.17,1.17,0,0,1,0,.26,0.42,0.42,0,0,1,.29.36,0.05,0.05,0,0,1,0,0l-0.05.39a0.49,0.49,0,0,1,0,.13L119.11,56l0.11,0.16,0,0.17a0.49,0.49,0,0,0,.28.27v0.21l0.29,0.32,0.27,0.5,0.14,0.18a1.15,1.15,0,0,1,.16.29A0.7,0.7,0,0,1,120.45,58.36ZM117,53.65l-0.08-.07,0-.06,0-.09h-0.18a1.57,1.57,0,0,1-.14-0.7V52.55l-0.33-.09-0.39-.87h-0.12l-0.49-1.1,0.08-.21,0-.23-0.41-.22-0.58-1.31a1.62,1.62,0,0,0-.4-0.42l-0.11.08-0.13.38-0.07,0a2.87,2.87,0,0,1-.18.48,1.59,1.59,0,0,1-.23.26,0.76,0.76,0,0,0-.28.43l0,0.22-0.44.91-0.13.28-0.08.16-0.07.1-0.1.11-0.08.19a0.74,0.74,0,0,1-.12.22,0.34,0.34,0,0,1-.2.05l0,0.21a2,2,0,0,1-.17.69,1.18,1.18,0,0,1-.39.4l0.15,0.26a0.25,0.25,0,0,0-.16.06,0.46,0.46,0,0,0-.1.18l-0.07.23L111,54l0.29,0.09,0.23,0,0.2,0.07,0-.07,0.16,0,1.14,0.07,0.73-.05,0.29,0.13,0.1-.08,0.19,0,0.5-.06,0.24,0,0,0.09,0.07,0a0.32,0.32,0,0,0,.2-0.15l0.24,0,0.71-.07,0.29,0,0.17-.07Z" transform="translate(-1.68 -0.52)"/><path class="cls-3" d="M125.93,55.51a0.83,0.83,0,0,1-.08.39,0.24,0.24,0,0,1-.2.16l-0.12,0-0.08.13-0.11.29-0.26.29-0.12.17H124.8l-0.54.27-0.25,0-0.43.15-0.34-.06-0.51.12-0.57-.11a0.86,0.86,0,0,1-.31-0.11l-0.23-.15-0.29-.16a0.93,0.93,0,0,1-.29-0.3,0.65,0.65,0,0,1-.11-0.34,0.43,0.43,0,0,1,.2-0.25,2.09,2.09,0,0,1,.44-0.27l0.13,0.17,0.11,0.51L122,56.56l0.34,0.26,0.16,0.05L122.82,57H123l0.14,0,0.29-.08,0.48,0,0.24-.12,0.23-.08a1.27,1.27,0,0,0,.42-0.53,1.62,1.62,0,0,0,.2-0.73,0.34,0.34,0,0,0-.08-0.22l-0.23-.32-0.06-.15-0.14-.07-0.08.09h-0.13l-0.32,0h-0.46l-0.16-.23a0.76,0.76,0,0,1-.2.18,1.16,1.16,0,0,1-.29.07l-0.2,0-0.12-.06h-0.15l-0.15-.12-0.19,0-0.18-.09-0.25-.08a0.47,0.47,0,0,1-.25-0.23,0.72,0.72,0,0,1-.11-0.37,1.17,1.17,0,0,1,.2-0.61,2.21,2.21,0,0,1,.55-0.59,4.9,4.9,0,0,1,.65-0.41,4.45,4.45,0,0,1,.72-0.32,1.84,1.84,0,0,1,.55-0.11,2.74,2.74,0,0,1,.44.12L124.59,52a3.92,3.92,0,0,1,.51-0.07,0.54,0.54,0,0,1,.26.05,0.15,0.15,0,0,1,.1.13,0.37,0.37,0,0,1-.17.21,1.94,1.94,0,0,1-.42.25l-0.18.08h-0.44L124,52.62l-0.1-.2h-0.08l-0.1.11h-0.34l-0.24,0-0.18,0-0.09.07-0.37.22a0.9,0.9,0,0,0-.39.61,0.25,0.25,0,0,0,.12.25l0.39,0.18,0.12,0.06V54l0.18,0.1,0.19-.18h0.09l1-.07L124.66,54l0.22,0,0.28,0.18,0.41,0.23a0.7,0.7,0,0,1,.22.37l0,0.16A2.31,2.31,0,0,1,125.93,55.51Z" transform="translate(-1.68 -0.52)"/><path class="cls-3" d="M132.35,55.51a0.83,0.83,0,0,1-.08.39,0.24,0.24,0,0,1-.2.16L132,56l-0.08.13-0.11.29-0.26.29-0.12.17h-0.16l-0.54.27-0.25,0-0.43.15-0.34-.06-0.51.12-0.57-.11a0.86,0.86,0,0,1-.31-0.11L128,57.08l-0.29-.16a0.93,0.93,0,0,1-.29-0.3,0.65,0.65,0,0,1-.11-0.34,0.43,0.43,0,0,1,.2-0.25,2.09,2.09,0,0,1,.44-0.27l0.13,0.17,0.11,0.51,0.21,0.13,0.34,0.26,0.16,0.05L129.25,57h0.22l0.14,0,0.29-.08,0.48,0,0.24-.12,0.23-.08a1.27,1.27,0,0,0,.42-0.53,1.62,1.62,0,0,0,.2-0.73,0.34,0.34,0,0,0-.08-0.22l-0.23-.32-0.06-.15L131,54.71l-0.08.09h-0.13l-0.32,0H130l-0.16-.23a0.76,0.76,0,0,1-.2.18,1.16,1.16,0,0,1-.29.07l-0.2,0L129,54.75h-0.15l-0.15-.12-0.19,0-0.18-.09-0.25-.08a0.47,0.47,0,0,1-.25-0.23,0.72,0.72,0,0,1-.11-0.37,1.17,1.17,0,0,1,.2-0.61,2.21,2.21,0,0,1,.55-0.59,4.9,4.9,0,0,1,.65-0.41,4.45,4.45,0,0,1,.72-0.32,1.84,1.84,0,0,1,.55-0.11,2.74,2.74,0,0,1,.44.12L131,52a3.92,3.92,0,0,1,.51-0.07,0.54,0.54,0,0,1,.26.05,0.15,0.15,0,0,1,.1.13,0.37,0.37,0,0,1-.17.21,1.94,1.94,0,0,1-.42.25l-0.18.08h-0.44l-0.22-.06-0.1-.2h-0.08l-0.1.11h-0.34l-0.24,0-0.18,0-0.09.07-0.37.22a0.9,0.9,0,0,0-.39.61,0.25,0.25,0,0,0,.12.25l0.39,0.18,0.12,0.06V54l0.18,0.1,0.19-.18h0.09l1-.07L131.09,54l0.22,0,0.28,0.18L132,54.38a0.7,0.7,0,0,1,.22.37l0,0.16A2.31,2.31,0,0,1,132.35,55.51Z" transform="translate(-1.68 -0.52)"/><path class="cls-3" d="M140.29,54.25l-0.13,0,0,0.13-0.13.09a0.41,0.41,0,0,0,0,.13l0.11,0.08v0.12a2.54,2.54,0,0,1-.49,1.38,3.13,3.13,0,0,1-.27.34l-0.2.24-0.18,0-1.1.51-0.61,0-0.44.11h-0.53l-0.18,0-0.53-.09h-0.22l-0.12-.13-0.33,0-0.15-.08-0.33-.25-0.17-.13-0.06-.07-0.13-.25L134,56.25l-0.14-.37-0.05-.15,0.06,0a0.19,0.19,0,0,1,0-.11,0.25,0.25,0,0,1,.11-0.06l0-.09-0.19-.12V55.07a2.15,2.15,0,0,1,.06-0.5A3.21,3.21,0,0,1,134,54a1.7,1.7,0,0,1,.34-0.58l0.24-.16,0.13-.23a0.36,0.36,0,0,1,.17-0.16l0.55-.29,0.31-.25,0.37-.14L136.8,52l0.54,0h0.43q0.36,0,.36.2a0.32,0.32,0,0,0,.13.09,0.28,0.28,0,0,0,.19-0.17l0.15,0L139,52.19l0.16,0.13,0.22,0.13,0.22,0.33a0.42,0.42,0,0,0,.34.11,1.19,1.19,0,0,1,.23.41,6,6,0,0,1,.13.75Zm-0.85.15-0.22-.67,0-.3-0.06-.11h0l-0.08,0L139,53.24l-0.29-.36-0.09-.15-0.49-.23a1.13,1.13,0,0,0-.12-0.17,0.16,0.16,0,0,0-.12-0.06,0.82,0.82,0,0,0-.24.06,0.71,0.71,0,0,0-.24-0.07l-0.17,0h-0.29l-0.4.15-0.09-.08-0.07.09-0.4.24-0.73.63-0.14.12a2,2,0,0,1-.27.68l-0.08.14v0a0.25,0.25,0,0,1,0,.17,0.3,0.3,0,0,1-.16.06l0,0.09v0h0l0.18,0.2,0,0.13a0.48,0.48,0,0,0-.18.2l0,0.07a0.14,0.14,0,0,1,.1-0.06,0.07,0.07,0,0,1,.07,0l0.13,0.43,0.3,0.49,0,0.3a0.14,0.14,0,0,0,.11,0,0.22,0.22,0,0,0,.15-0.07l0.12,0,0.71,0.43L136.92,57l0.41,0.06,0.46-.08,0.3-.07,0.38-.39,0.28-.08,0.13-.15,0.31-.64,0.16-.13a0.22,0.22,0,0,0,.08-0.14v0l-0.09-.27Z" transform="translate(-1.68 -0.52)"/><path class="cls-3" d="M147,56.11a0.14,0.14,0,0,1,0,.06l-0.07.3v0l-0.25.31-0.15,0-0.23.15-0.09,0-0.26.13h-0.4a0.71,0.71,0,0,0-.27.08l-0.3.17-0.47,0-0.47,0L144,57.33l-0.34,0-0.39-.11-0.54-.12-0.25-.22-0.23-.23,0.07-.2a0.53,0.53,0,0,1-.2,0h0l-0.11-.12-0.15-.25L141.71,56l0-.33,0-.17,0-.09-0.12-.13,0.08-.3,0-.54,0.2-.35,0.25-.51,0.33-.28L143,52.7l0.17-.12,0.23-.16,0.11,0,0.24-.18,0.75-.24,0.18,0h0l0.3,0.13,0.3-.08,0.56,0.09,0.48-.07,0.19,0.07a0.63,0.63,0,0,1-.1.25,0.7,0.7,0,0,1-.23.14v0.13l-0.24.15-0.17.08h0l-0.16,0-0.2,0-0.9-.14h-0.25l-0.49.09h-0.16a0.66,0.66,0,0,0-.39.31l-0.25.09-0.11.24-0.2,0a0.19,0.19,0,0,1,0,.08L142.4,54l0,0.2v0.36a2.41,2.41,0,0,0,0,.43,1.31,1.31,0,0,0,.12.34l0,0.13a0.37,0.37,0,0,0-.06.13,0.17,0.17,0,0,0,0,.09l0.17,0a1.22,1.22,0,0,1,.18.22L143,56.14l0,0.05,0,0.08h0.13l0.07,0.1,0.39,0.27,0.16,0.14L144,56.84l0.17,0.06h0.26L145.09,57h0a1.24,1.24,0,0,0,.41-0.17l0.11,0,0.4-.28a0.72,0.72,0,0,0,.31-0.13,2.92,2.92,0,0,0,.41-0.37,0.2,0.2,0,0,1,.15-0.09,0.11,0.11,0,0,1,.08,0A0.12,0.12,0,0,1,147,56.11Z" transform="translate(-1.68 -0.52)"/><path class="cls-3" d="M149.71,52.09a1.4,1.4,0,0,0-.13.46l0,0.58-0.11.2v0.05a0.24,0.24,0,0,0,.15.16l0,0.18v1.13l0,0.91,0.08,0.39v0.2l0,0.4a1.29,1.29,0,0,1-.37.34l-0.29.23a0.23,0.23,0,0,1-.18.08,0.21,0.21,0,0,1-.13,0,0.13,0.13,0,0,1-.06-0.1,0.89,0.89,0,0,1,.09-0.36l0-.17-0.06-.06,0.09-1,0-.1,0.15,0V55.37a0.94,0.94,0,0,0,0-.27,0.87,0.87,0,0,0-.15-0.23V54.54a0.81,0.81,0,0,1,.07-0.34l-0.08-.1V53.78a0.13,0.13,0,0,0,.08-0.11v-0.1l-0.17,0V53a0.64,0.64,0,0,0,0-.23,0.46,0.46,0,0,0-.14-0.16,0.71,0.71,0,0,1,.34-0.36l0.56-.32A0.42,0.42,0,0,1,149.71,52.09Zm0.35-3.1a0.19,0.19,0,0,1-.06.17l-0.43.31-0.17.17-0.31.21a1.23,1.23,0,0,1-.37.23,0.09,0.09,0,0,1-.06,0,0.12,0.12,0,0,1,0-.08,0.28,0.28,0,0,1,.07-0.2l0.6-.57,0.32-.43a0.35,0.35,0,0,1,.16,0,0.29,0.29,0,0,1,.2.08A0.26,0.26,0,0,1,150.06,49Z" transform="translate(-1.68 -0.52)"/><path class="cls-3" d="M156.66,56.82l-0.06.11-0.09.14-0.17.06-0.24.13-0.23.07-0.25.09a0.11,0.11,0,0,1-.08,0,0.13,0.13,0,0,1,0-.08,1.3,1.3,0,0,1,.06-0.26,0.69,0.69,0,0,0,0-.2l-0.12.08-0.53.18a0.73,0.73,0,0,1-.32.08h-0.24l-0.27.13-0.19,0-0.54.11-0.22,0-0.16.06-0.11,0h-0.18l-0.39-.08-0.26,0a1,1,0,0,1-.46-0.18,0.88,0.88,0,0,1-.29-0.38l-0.16-.06,0-.15V56.48l-0.08-.27,0.22-.43,0.07-.19a0.82,0.82,0,0,1,.22-0.22L152,55l0.19-.07,0.32-.13h0.06a0.44,0.44,0,0,1,.44-0.25l0,0h0.12a0.44,0.44,0,0,1,.15-0.13,1.43,1.43,0,0,1,.29-0.08l0.73-.13,0.22,0,0.27-.06,0.49-.05a0.26,0.26,0,0,0,.25-0.24,0,0,0,0,0,0,0l-0.06-.26,0-.38a0.26,0.26,0,0,0-.09-0.18,0.43,0.43,0,0,0-.21-0.07l-0.08-.13a1.05,1.05,0,0,0-.21-0.27,0.85,0.85,0,0,0-.31-0.11l-0.33-.08H154l-0.16,0-0.08-.06a0.27,0.27,0,0,1,0-.11l-0.16.07-0.18.17-0.57.29a0.64,0.64,0,0,0-.24.19l-0.08.12a0.18,0.18,0,0,1-.16.09l-0.12,0L152,53l-0.18,0a0.57,0.57,0,0,1-.18-0.1,0.19,0.19,0,0,1-.09-0.13s0,0,0,0l0.1-.07,0.19-.15,0.2,0,0.31-.16,0.39-.13,0.11,0,0.25-.13,0.2,0,0.71-.15h0.53L154.83,52l0.7,0.13,0.11,0.06v0.08l-0.08,0c0,0.14.07,0.2,0.15,0.2h0l0.16-.07h0a0.07,0.07,0,0,1,.08.06l0.12,0.22,0.12,0.09v0.13l0,0.3a0.41,0.41,0,0,0,.19.33l0.08,0.86-0.16.22,0.18,0.21v0.08l0,0.55,0,0.42v0.23l-0.08,0c0,0.1,0,.16,0,0.19a0.5,0.5,0,0,0,0,.12l0.08,0.18Zm-0.93-1a0.42,0.42,0,0,1-.11-0.13l0-.24,0-.54,0.07-.16-0.19-.11-0.1,0-0.54,0h-0.25l-0.19-.13-0.12.07H154l-0.23.09-0.13-.08-0.16.1-0.88.42-0.19.14-0.15.23-0.2.12a0.14,0.14,0,0,0,0,.11v0l0,0.07v0.05l0.13,0.53-0.13.33,0.09,0.12,0.16-.19,0.15,0.12,0.17,0.08,0.25,0.07L153,57.08l0.4,0,0.11-.11,0.12,0.06,0.08,0,0.06,0,0.16,0a1,1,0,0,0,.46-0.16l0,0,0.09,0a0.86,0.86,0,0,0,.7-0.22l0.12-.15,0.29-.24V56A0.2,0.2,0,0,0,155.7,56,0.45,0.45,0,0,0,155.73,55.81Z" transform="translate(-1.68 -0.52)"/><path class="cls-3" d="M162.29,52.13l-0.06.16v0.12l-0.42.31-0.25.23-0.15,0-0.22,0-0.39-.07-0.17,0h0l-0.39,0-0.23,0a0.25,0.25,0,0,0-.14.06,0.14,0.14,0,0,0-.06.11,0.08,0.08,0,0,0,.07.08v0.75a0.27,0.27,0,0,0-.25.22v0.13l0.24,0,0,0.56v0.12l-0.06.18-0.12,0a0.12,0.12,0,0,0-.15.13,0.37,0.37,0,0,0,.09.18,0.25,0.25,0,0,1,.11-0.1l0.12,0.09v0.79l0,0.12,0.13,0.28a0.92,0.92,0,0,1,0,.2,1.1,1.1,0,0,0,.22.11,0.8,0.8,0,0,0,.22,0,1.11,1.11,0,0,0,.37-0.06,0.88,0.88,0,0,0,.29-0.16l0.58-.53a0.12,0.12,0,0,1,.09,0,0.47,0.47,0,0,1,.2.08l0,0.13a1,1,0,0,1-.2.51l-1.37.5-0.24.12L160,57.32l-0.12,0-0.06.16h-0.11a0.74,0.74,0,0,1-.41-0.17,0.71,0.71,0,0,1-.26-0.3l0-.17-0.07-.2v-0.7l0.12-.39,0-.14,0-.2V55.07l0-.56V54.35l0-.2s0,0,0,0l0.15-.18a0.13,0.13,0,0,0,0-.07c0-.09-0.07-0.13-0.2-0.13l0-.07a6.24,6.24,0,0,0,.06-0.85,1.93,1.93,0,0,0-1.15.06,0.12,0.12,0,0,1,0-.09,0.14,0.14,0,0,1,0-.13l0.23-.19,0-.13a0.16,0.16,0,0,1,.06-0.08l0.06,0,0.68,0,0.16,0V52.05l0-1.24-0.15-.33,0-.18a1.24,1.24,0,0,1,.35-0.35,1.3,1.3,0,0,1,.45-0.15,0.32,0.32,0,0,1,.2-0.18q0.16,0,.16.53a3.19,3.19,0,0,1-.15,1.15,0.3,0.3,0,0,1-.16.24V51.8h0.12a0.23,0.23,0,0,1,.07.07l0,0.16,0,0.13H160l0.58,0.13,0.19,0a0.5,0.5,0,0,0,.18,0l0.23-.07,0.44,0,0.34-.12h0.3v0Z" transform="translate(-1.68 -0.52)"/><path class="cls-3" d="M168.94,56a0.29,0.29,0,0,1,0,.13l-0.12.2-0.27.47-0.25,0-0.16.13a0.32,0.32,0,0,1-.18.07l-1.05.2-0.16.06-0.37,0-0.54,0-0.61,0H165l-0.16-.12L164.3,57l-0.19-.18-0.38-.26-0.3-.4-0.12-.1a0.57,0.57,0,0,0,.07-0.25,0.1,0.1,0,0,0,0-.07l-0.16-.25,0-.33V54.85a2.1,2.1,0,0,1,.23-0.78l0.22-.27,0.11-.25,0.28-.26,0.3-.39,0.26-.15,0.38-.26,0.25-.17,0.09-.06,0.18,0,0.53-.17,0.41,0,0.25-.11h0.12a0.59,0.59,0,0,1,.5.32,0.2,0.2,0,0,0,.16-0.12l0.16,0.13,0.22,0.12,0.49,0.48a1.72,1.72,0,0,1,.14.2l0.1,0.18a1.45,1.45,0,0,1,.09.2l0.11,0.34,0,0.15-0.06,0-0.23,0-0.25.08-0.19,0-0.22.06-0.41,0-0.39,0-0.41-.07h-1l-0.79.11h-0.29l-0.4.12-0.14,0,0,0.14a0.54,0.54,0,0,1,0,.2,0.43,0.43,0,0,1-.13.12v0.11a0.87,0.87,0,0,1,.2.18l0.15,0.6,0.08,0.15a0.16,0.16,0,0,0-.06.11v0l0.22,0.07L164.49,56a0.38,0.38,0,0,0,.15.25L165,56.33l0.11,0.23a0.89,0.89,0,0,0,.26.06l0.08,0.15,0.18,0,0.5,0.18,0.42-.08,1.11-.18,0.24-.15,0.37-.23,0.31-.4a0.24,0.24,0,0,1,.19-0.1A0.17,0.17,0,0,1,168.94,56Zm-1.38-2.75a1,1,0,0,0-.22-0.39l-0.4-.29-0.13-.14h-0.19l-0.44,0-0.11,0-0.25.14-0.32.08-0.41.15-0.16.06-0.19.28-0.19.15,0,0.07,0.72,0.05h0.08l0.13,0,0.13,0,0.34,0.07h0l0.39-.07,0.12,0,0.09,0.13h0.13l0.51-.11,0.21,0A0.14,0.14,0,0,0,167.57,53.27Z" transform="translate(-1.68 -0.52)"/><path class="cls-3" d="M175.25,55.51a0.83,0.83,0,0,1-.08.39,0.24,0.24,0,0,1-.2.16l-0.12,0-0.08.13-0.11.29-0.26.29-0.12.17h-0.16l-0.54.27-0.25,0-0.43.15-0.34-.06-0.51.12-0.57-.11a0.86,0.86,0,0,1-.31-0.11l-0.23-.15-0.29-.16a0.93,0.93,0,0,1-.29-0.3,0.65,0.65,0,0,1-.11-0.34,0.43,0.43,0,0,1,.2-0.25,2.09,2.09,0,0,1,.44-0.27L171,55.92l0.11,0.51,0.21,0.13,0.34,0.26,0.16,0.05L172.14,57h0.22l0.14,0,0.29-.08,0.48,0,0.24-.12,0.23-.08a1.27,1.27,0,0,0,.42-0.53,1.62,1.62,0,0,0,.2-0.73,0.34,0.34,0,0,0-.08-0.22l-0.23-.32L174,54.78l-0.14-.07-0.08.09h-0.13l-0.32,0h-0.46l-0.16-.23a0.76,0.76,0,0,1-.2.18,1.16,1.16,0,0,1-.29.07l-0.2,0-0.12-.06h-0.15l-0.15-.12-0.19,0-0.18-.09L171,54.49a0.47,0.47,0,0,1-.25-0.23,0.72,0.72,0,0,1-.11-0.37,1.17,1.17,0,0,1,.2-0.61,2.21,2.21,0,0,1,.55-0.59,4.9,4.9,0,0,1,.65-0.41,4.45,4.45,0,0,1,.72-0.32,1.84,1.84,0,0,1,.55-0.11,2.74,2.74,0,0,1,.44.12L173.91,52a3.92,3.92,0,0,1,.51-0.07,0.54,0.54,0,0,1,.26.05,0.15,0.15,0,0,1,.1.13,0.37,0.37,0,0,1-.17.21,1.94,1.94,0,0,1-.42.25L174,52.7h-0.44l-0.22-.06-0.1-.2h-0.08l-0.1.11h-0.34l-0.24,0-0.18,0-0.09.07-0.37.22a0.9,0.9,0,0,0-.39.61,0.25,0.25,0,0,0,.12.25L172,53.83l0.12,0.06V54l0.18,0.1,0.19-.18h0.09l1-.07L174,54l0.22,0,0.28,0.18,0.41,0.23a0.7,0.7,0,0,1,.22.37l0,0.16A2.31,2.31,0,0,1,175.25,55.51Z" transform="translate(-1.68 -0.52)"/><path class="cls-4" d="M3.13,73.11v0.37c0,0.56,0,1.09.73,1.09s0.78-.54.78-1.09V68.8H5.33v4.72c0,1.32-.6,1.67-1.48,1.67a1.25,1.25,0,0,1-1.2-.59,3.12,3.12,0,0,1-.22-1.5H3.13Z" transform="translate(-1.68 -0.52)"/><path class="cls-4" d="M9.45,75.08l-0.15,0c-0.56,0-.77,0-0.84-0.66h0a1.18,1.18,0,0,1-1,.75,1.11,1.11,0,0,1-1.2-1.36,1.19,1.19,0,0,1,.67-1.13c0.38-.17,1.31-0.52,1.4-0.59a0.82,0.82,0,0,0-.61-1.26c-0.6,0-.69.28-0.68,0.82H6.41A1.18,1.18,0,0,1,7.79,70.3,1.12,1.12,0,0,1,9,71.56v2.67a0.35,0.35,0,0,0,.12.35,0.82,0.82,0,0,0,.28,0v0.49ZM8.36,72.57c-0.33.19-.69,0.33-1,0.5a0.83,0.83,0,0,0-.41.8,0.61,0.61,0,0,0,.65.77,0.85,0.85,0,0,0,.8-0.95V72.57Z" transform="translate(-1.68 -0.52)"/><path class="cls-4" d="M12.21,71.67a0.65,0.65,0,0,0-.74-0.81,0.64,0.64,0,0,0-.74.7,1,1,0,0,0,.94.87c0.67,0.3,1.34.47,1.34,1.34a1.4,1.4,0,0,1-1.57,1.43,1.39,1.39,0,0,1-1.15-.48,1.42,1.42,0,0,1-.26-1h0.63a0.73,0.73,0,0,0,.79.92,0.75,0.75,0,0,0,.89-0.79c0-.66-0.67-0.72-1.15-0.92a1.29,1.29,0,0,1-1.14-1.32,1.26,1.26,0,0,1,1.36-1.31,1.24,1.24,0,0,1,1.44,1.37H12.21Z" transform="translate(-1.68 -0.52)"/><path class="cls-4" d="M15.48,75.2c-1,0-1.66-.6-1.66-2.61,0-1.41.52-2.29,1.66-2.29s1.66,0.89,1.66,2.29C17.14,74.61,16.5,75.2,15.48,75.2Zm0-4.34c-0.68,0-1,.54-1,1.94,0,1.1.21,1.84,1,1.84s1-.74,1-1.84C16.46,71.4,16.17,70.86,15.48,70.86Z" transform="translate(-1.68 -0.52)"/><path class="cls-4" d="M18.82,70.94h0A1.41,1.41,0,0,1,20,70.3a1,1,0,0,1,1.15,1.19v3.59H20.49v-3.4a0.66,0.66,0,0,0-.69-0.81,1,1,0,0,0-.65.26,1,1,0,0,0-.3.84v3.11H18.18V70.43h0.64v0.51Z" transform="translate(-1.68 -0.52)"/><path class="cls-4" d="M24.72,73.11v0.37c0,0.56,0,1.09.73,1.09s0.78-.54.78-1.09V68.8h0.69v4.72c0,1.32-.6,1.67-1.48,1.67a1.25,1.25,0,0,1-1.2-.59,3.12,3.12,0,0,1-.22-1.5h0.69Z" transform="translate(-1.68 -0.52)"/><path class="cls-4" d="M28.22,75.08V74.24H29v0.84H28.22Z" transform="translate(-1.68 -0.52)"/><path class="cls-4" d="M32.45,75.08V68.8H34.1a2.15,2.15,0,0,1,1.46.41,1.76,1.76,0,0,1,.51,1.34,1.69,1.69,0,0,1-.89,1.68,4.78,4.78,0,0,1-1.62.18H33.15v2.66H32.45Zm0.69-3.29h0.68c1,0,1.54-.14,1.53-1.22s-0.64-1.15-1.49-1.14H33.15v2.36Z" transform="translate(-1.68 -0.52)"/><path class="cls-4" d="M39.65,73.53a1.42,1.42,0,0,1-1.4,1.67c-0.88,0-1.51-.58-1.51-2.46,0-1,.26-2.44,1.49-2.44,1.5,0,1.42,1.42,1.45,2.51H37.43c0,0.63-.09,1.83.84,1.83A0.87,0.87,0,0,0,39,73.53h0.62ZM39,72.27c0-.54,0-1.41-0.76-1.41s-0.79.85-.81,1.41H39Z" transform="translate(-1.68 -0.52)"/><path class="cls-4" d="M43.58,75.08l-0.15,0c-0.56,0-.77,0-0.84-0.66h0a1.18,1.18,0,0,1-1,.75,1.11,1.11,0,0,1-1.2-1.36A1.19,1.19,0,0,1,41,72.71c0.38-.17,1.31-0.52,1.4-0.59a0.82,0.82,0,0,0-.61-1.26c-0.6,0-.69.28-0.68,0.82H40.54a1.18,1.18,0,0,1,1.38-1.38,1.12,1.12,0,0,1,1.26,1.26v2.67a0.35,0.35,0,0,0,.12.35,0.82,0.82,0,0,0,.28,0v0.49ZM42.5,72.57c-0.33.19-.69,0.33-1,0.5a0.83,0.83,0,0,0-.41.8,0.61,0.61,0,0,0,.65.77,0.85,0.85,0,0,0,.8-0.95V72.57Z" transform="translate(-1.68 -0.52)"/><path class="cls-4" d="M44.86,73c0,0.61,0,1.69.89,1.69s0.79-.62.82-1.19H47.2c0,0.89-.36,1.75-1.4,1.75-1.42,0-1.62-1.19-1.62-2.39s0.18-2.51,1.61-2.51a1.39,1.39,0,0,1,1.38,1.59H46.54a0.84,0.84,0,0,0-.77-1C44.81,70.86,44.86,72.29,44.86,73Z" transform="translate(-1.68 -0.52)"/><path class="cls-4" d="M49.61,75.2c-1,0-1.66-.6-1.66-2.61,0-1.41.52-2.29,1.66-2.29s1.66,0.89,1.66,2.29C51.28,74.61,50.63,75.2,49.61,75.2Zm0-4.34c-0.68,0-1,.54-1,1.94,0,1.1.21,1.84,1,1.84s1-.74,1-1.84C50.59,71.4,50.31,70.86,49.61,70.86Z" transform="translate(-1.68 -0.52)"/><path class="cls-4" d="M52.76,73c0,0.61,0,1.69.89,1.69s0.79-.62.82-1.19h0.63c0,0.89-.36,1.75-1.4,1.75-1.42,0-1.62-1.19-1.62-2.39s0.18-2.51,1.61-2.51a1.39,1.39,0,0,1,1.38,1.59H54.44a0.84,0.84,0,0,0-.77-1C52.71,70.86,52.76,72.29,52.76,73Z" transform="translate(-1.68 -0.52)"/><path class="cls-4" d="M56,75.08V68.8h0.66v3.79h0l1.59-2.17H59l-1.44,1.81,1.48,2.84H58.32l-1.16-2.32-0.5.66v1.66H56Z" transform="translate(-1.68 -0.52)"/><path class="cls-4" d="M59.8,75.08V74.24h0.76c0,0.13,0,.67,0,1a1.08,1.08,0,0,1-.41.9,1.1,1.1,0,0,1-.33.17V75.92A0.36,0.36,0,0,0,60,75.81a1.05,1.05,0,0,0,.22-0.74H59.8Z" transform="translate(-1.68 -0.52)"/><path class="cls-4" d="M63.88,75.08V69.85h1.44c1.63,0,1.85,1.32,1.81,2.61s-0.29,2.62-1.71,2.62H63.88Zm0.58-.52h0.93c0.85,0,1.2-.63,1.14-2.2,0-1.19-.21-2-1.14-2H64.46v4.18Z" transform="translate(-1.68 -0.52)"/><path class="cls-4" d="M68.14,75.08V69.85h1.44c1.63,0,1.85,1.32,1.81,2.61s-0.29,2.62-1.71,2.62H68.14Zm0.58-.52h0.93c0.85,0,1.2-.63,1.14-2.2,0-1.19-.21-2-1.14-2H68.72v4.18Z" transform="translate(-1.68 -0.52)"/><path class="cls-4" d="M74.61,71.22a0.8,0.8,0,0,0-.83-1,0.81,0.81,0,0,0-.93.93,0.69,0.69,0,0,0,.5.71l0.83,0.31c1,0.37,1.17.72,1.17,1.41a1.47,1.47,0,0,1-1.62,1.57,1.43,1.43,0,0,1-1.43-.83,2.92,2.92,0,0,1-.11-1h0.58c0,0.77.12,1.26,1,1.26a0.88,0.88,0,0,0,1-.91c0-.79-0.32-0.8-0.85-1-0.29-.11-0.75-0.26-1-0.4a1.17,1.17,0,0,1-.62-1.19,1.37,1.37,0,0,1,1.46-1.43,1.3,1.3,0,0,1,1.49,1.48H74.61Z" transform="translate(-1.68 -0.52)"/><path class="cls-4" d="M76.37,75.08V74.24h0.76c0,0.13,0,.67,0,1a1.08,1.08,0,0,1-.41.9,1.1,1.1,0,0,1-.33.17V75.92a0.36,0.36,0,0,0,.19-0.11,1.05,1.05,0,0,0,.22-0.74H76.37Z" transform="translate(-1.68 -0.52)"/><path class="cls-4" d="M83.76,69.85h1v5.23H84.2V70.77c0-.22,0-0.44,0-0.66h0c-0.06.31-.11,0.5-0.16,0.7l-1.09,4.27H82.24l-1.09-4.33c0-.18-0.09-0.36-0.15-0.64h0c0,0.22,0,.45,0,0.68v4.3H80.41V69.85h1l1,4.08a4.69,4.69,0,0,1,.11.77h0a7.43,7.43,0,0,1,.13-0.78Z" transform="translate(-1.68 -0.52)"/><path class="cls-4" d="M88.09,71.22a0.8,0.8,0,0,0-.83-1,0.81,0.81,0,0,0-.93.93,0.69,0.69,0,0,0,.5.71l0.83,0.31c1,0.37,1.17.72,1.17,1.41A1.47,1.47,0,0,1,87.2,75.2a1.43,1.43,0,0,1-1.43-.83,2.92,2.92,0,0,1-.11-1h0.58c0,0.77.12,1.26,1,1.26a0.88,0.88,0,0,0,1-.91c0-.79-0.32-0.8-0.85-1-0.29-.11-0.75-0.26-1-0.4a1.17,1.17,0,0,1-.62-1.19,1.37,1.37,0,0,1,1.46-1.43,1.3,1.3,0,0,1,1.49,1.48H88.09Z" transform="translate(-1.68 -0.52)"/><path class="cls-5" d="M92,67.8h0.54v8.36H92V67.8Z" transform="translate(-1.68 -0.52)"/><path class="cls-4" d="M96.86,75.08H96.17V68.8h1.61c1.31,0,2.15.34,2.11,1.79A1.34,1.34,0,0,1,98.68,72v0a1,1,0,0,1,1.11,1.17c0,0.47.07,0.93,0.13,1.4a0.42,0.42,0,0,0,.24.39v0.14H99.36a5.73,5.73,0,0,1-.22-1.6,1,1,0,0,0-1.07-1.16H96.86v2.76Zm0-3.39H98a1.07,1.07,0,0,0,1.21-1.15,1.09,1.09,0,0,0-1.33-1.1h-1v2.26Z" transform="translate(-1.68 -0.52)"/><path class="cls-4" d="M102.65,75.2c-1,0-1.66-.6-1.66-2.61,0-1.41.52-2.29,1.66-2.29s1.66,0.89,1.66,2.29C104.31,74.61,103.67,75.2,102.65,75.2Zm0-4.34c-0.68,0-1,.54-1,1.94,0,1.1.21,1.84,1,1.84s1-.74,1-1.84C103.63,71.4,103.34,70.86,102.65,70.86Z" transform="translate(-1.68 -0.52)"/><path class="cls-4" d="M107.62,68.8h0.66v6.27h-0.64V74.47h0a1.1,1.1,0,0,1-1.13.74c-1.46,0-1.35-2-1.36-2.46-0.05-1.36.4-2.44,1.4-2.44a1.24,1.24,0,0,1,1.07.6h0V68.8Zm0,3.87c0-.64,0-1.82-0.9-1.82-0.55,0-.91.44-0.91,1.87,0,1,0,1.92.94,1.92,0.69,0,.88-0.86.88-1.39V72.68Z" transform="translate(-1.68 -0.52)"/><path class="cls-4" d="M110.17,70.94h0a1.41,1.41,0,0,1,1.16-.64,1,1,0,0,1,1.15,1.19v3.59h-0.66v-3.4a0.66,0.66,0,0,0-.69-0.81,1,1,0,0,0-.65.26,1,1,0,0,0-.3.84v3.11h-0.66V70.43h0.64v0.51Z" transform="translate(-1.68 -0.52)"/><path class="cls-4" d="M116.37,73.53A1.42,1.42,0,0,1,115,75.2c-0.88,0-1.51-.58-1.51-2.46,0-1,.26-2.44,1.49-2.44,1.5,0,1.42,1.42,1.45,2.51h-2.26c0,0.63-.09,1.83.84,1.83a0.87,0.87,0,0,0,.77-1.11h0.62Zm-0.65-1.26c0-.54,0-1.41-0.76-1.41s-0.79.85-.81,1.41h1.57Z" transform="translate(-1.68 -0.52)"/><path class="cls-4" d="M116.86,70.43h0.69l1,4h0l1.08-4h0.69L119,74.87a8.75,8.75,0,0,1-.43,1.19,1.1,1.1,0,0,1-1.06.61,1.59,1.59,0,0,1-.48-0.08V76a1.26,1.26,0,0,0,.49.1c0.62,0,.64-0.46.82-0.92Z" transform="translate(-1.68 -0.52)"/><path class="cls-4" d="M123.24,75.08V68.8h3.14v0.63h-2.44v2.07h2.29v0.63h-2.29v2.32h2.46v0.63h-3.15Z" transform="translate(-1.68 -0.52)"/><path class="cls-4" d="M127.47,75.08V74.24h0.76v0.84h-0.76Z" transform="translate(-1.68 -0.52)"/><path class="cls-4" d="M131.65,75.08V68.8h1.79a1.4,1.4,0,0,1,1.6,1.56,1.22,1.22,0,0,1-.94,1.38v0a1.25,1.25,0,0,1,1.09,1.47,1.64,1.64,0,0,1-1.88,1.85h-1.66Zm0.69-3.59H133c0.84,0,1.34-.11,1.33-1.07,0-.78-0.28-1-1.34-1h-0.61v2.06Zm1.09,3a0.94,0.94,0,0,0,1-1.18c0-1.24-.79-1.15-1.51-1.15h-0.62v2.33h1.09Z" transform="translate(-1.68 -0.52)"/><path class="cls-4" d="M138.51,74.47h0a1.22,1.22,0,0,1-1.1.74A1,1,0,0,1,136.27,74V70.43h0.66V74a0.5,0.5,0,0,0,.59.6,1,1,0,0,0,.79-0.41,1.56,1.56,0,0,0,.19-0.82v-3h0.66v4.65h-0.66V74.47Z" transform="translate(-1.68 -0.52)"/><path class="cls-4" d="M141.12,71.19h0a1.21,1.21,0,0,1,1.36-.81V71a1.1,1.1,0,0,0-1.35,1.23v2.82h-0.66V70.43h0.63v0.76Z" transform="translate(-1.68 -0.52)"/><path class="cls-4" d="M145.48,68.8h0.66v6.27H145.5V74.47h0a1.1,1.1,0,0,1-1.13.74c-1.46,0-1.35-2-1.36-2.46,0-1.36.4-2.44,1.4-2.44a1.24,1.24,0,0,1,1.07.6h0V68.8Zm0,3.87c0-.64,0-1.82-0.9-1.82-0.55,0-.91.44-0.91,1.87,0,1,0,1.92.94,1.92,0.69,0,.88-0.86.88-1.39V72.68Z" transform="translate(-1.68 -0.52)"/><path class="cls-4" d="M150,73.53a1.42,1.42,0,0,1-1.41,1.67c-0.88,0-1.5-.58-1.5-2.46,0-1,.26-2.44,1.49-2.44,1.51,0,1.42,1.42,1.46,2.51h-2.26c0,0.63-.09,1.83.84,1.83a0.87,0.87,0,0,0,.77-1.11H150Zm-0.65-1.26c0-.54,0-1.41-0.76-1.41s-0.79.85-.81,1.41h1.57Z" transform="translate(-1.68 -0.52)"/><path class="cls-4" d="M151.86,70.43h0.78V71h-0.77v3.17c0,0.16-.06.36,0.31,0.36h0.44v0.56h-0.73c-0.39,0-.69-0.06-0.69-0.76V71h-0.64V70.43h0.64V69.16h0.65v1.26Z" transform="translate(-1.68 -0.52)"/><path class="cls-4" d="M154.18,70.43H155V71h-0.77v3.17c0,0.16-.06.36,0.31,0.36h0.44v0.56h-0.73c-0.39,0-.69-0.06-0.69-0.76V71h-0.64V70.43h0.64V69.16h0.65v1.26Z" transform="translate(-1.68 -0.52)"/><path class="cls-4" d="M158.41,73.53A1.42,1.42,0,0,1,157,75.2c-0.88,0-1.5-.58-1.5-2.46,0-1,.26-2.44,1.49-2.44,1.51,0,1.42,1.42,1.46,2.51h-2.26c0,0.63-.09,1.83.84,1.83a0.87,0.87,0,0,0,.77-1.11h0.62Zm-0.65-1.26c0-.54,0-1.41-0.76-1.41s-0.79.85-.81,1.41h1.57Z" transform="translate(-1.68 -0.52)"/><path class="cls-4" d="M159.52,75.08V74.24h0.76c0,0.13,0,.67,0,1a1.08,1.08,0,0,1-.41.9,1.1,1.1,0,0,1-.33.17V75.92a0.35,0.35,0,0,0,.19-0.11,1.06,1.06,0,0,0,.22-0.74h-0.41Z" transform="translate(-1.68 -0.52)"/><path class="cls-4" d="M163.6,75.08V69.85H165c1.63,0,1.85,1.32,1.81,2.61s-0.29,2.62-1.71,2.62H163.6Zm0.58-.52h0.93c0.85,0,1.2-.63,1.14-2.2,0-1.19-.21-2-1.14-2h-0.93v4.18Z" transform="translate(-1.68 -0.52)"/><path class="cls-4" d="M167.86,75.08V69.85h1.44c1.63,0,1.86,1.32,1.81,2.61s-0.29,2.62-1.71,2.62h-1.54Zm0.58-.52h0.93c0.85,0,1.2-.63,1.14-2.2,0-1.19-.21-2-1.14-2h-0.93v4.18Z" transform="translate(-1.68 -0.52)"/><path class="cls-4" d="M174.34,71.22a0.8,0.8,0,0,0-.83-1,0.81,0.81,0,0,0-.93.93,0.69,0.69,0,0,0,.5.71l0.83,0.31c1,0.37,1.17.72,1.17,1.41a1.47,1.47,0,0,1-1.62,1.57,1.43,1.43,0,0,1-1.43-.83,2.92,2.92,0,0,1-.11-1h0.58c0,0.77.12,1.26,1,1.26a0.88,0.88,0,0,0,1-.91c0-.79-0.32-0.8-0.85-1-0.29-.11-0.75-0.26-1-0.4a1.17,1.17,0,0,1-.62-1.19,1.37,1.37,0,0,1,1.46-1.43,1.3,1.3,0,0,1,1.49,1.48h-0.58Z" transform="translate(-1.68 -0.52)"/></svg>